<mxfile host="app.diagrams.net" modified="2024-06-27T10:36:49.164Z" agent="Mozilla/5.0 (Windows NT 10.0; Win64; x64) AppleWebKit/537.36 (KHTML, like Gecko) Chrome/125.0.0.0 Safari/537.36 Edg/125.0.0.0" etag="O-tG4A5Jkwx3xzClMcuh" version="24.6.3" type="github">
  <diagram name="‫עמוד-1‬" id="dHkA9cBUytoh4jv0Vv6P">
    <mxGraphModel dx="1829" dy="1738" grid="1" gridSize="10" guides="1" tooltips="1" connect="1" arrows="1" fold="1" page="1" pageScale="1" pageWidth="827" pageHeight="1169" math="0" shadow="0">
      <root>
        <mxCell id="0" />
        <mxCell id="1" parent="0" />
        <mxCell id="rCQZ0M5XMtd213yGawNZ-204" value="" style="group;fontSize=27;fontFamily=Helvetica;" parent="1" vertex="1" connectable="0">
          <mxGeometry x="-790" y="-540" width="3140" height="2910" as="geometry" />
        </mxCell>
        <mxCell id="rCQZ0M5XMtd213yGawNZ-57" value="&lt;p style=&quot;margin: 4px 0px 0px; text-align: center; font-size: 27px;&quot;&gt;&lt;font style=&quot;font-size: 27px;&quot;&gt;&lt;i style=&quot;font-size: 27px;&quot;&gt;&amp;lt;&amp;lt;Interface&amp;gt;&amp;gt;&lt;/i&gt;&lt;br style=&quot;font-size: 27px;&quot;&gt;&lt;b style=&quot;font-size: 27px;&quot;&gt;IRepository&lt;/b&gt;&lt;/font&gt;&lt;/p&gt;&lt;hr style=&quot;border-style: solid; font-size: 27px;&quot;&gt;&lt;p style=&quot;margin: 0px 0px 0px 4px; font-size: 27px;&quot;&gt;&lt;/p&gt;&lt;h1 style=&quot;margin: 0px 0px 0px 4px; font-size: 27px;&quot;&gt;&lt;span style=&quot;font-weight: 400; font-size: 27px;&quot;&gt;+find(int unique) :&amp;lt;T&amp;gt;&lt;/span&gt;&lt;br style=&quot;font-size: 27px;&quot;&gt;&lt;/h1&gt;&lt;div style=&quot;font-size: 27px;&quot;&gt;&lt;font style=&quot;font-size: 27px;&quot;&gt;+add(&lt;/font&gt;&lt;span style=&quot;background-color: initial; font-size: 27px;&quot;&gt;Json newRec) : void&lt;/span&gt;&lt;/div&gt;&lt;div style=&quot;font-size: 27px;&quot;&gt;&lt;span style=&quot;background-color: initial; font-size: 27px;&quot;&gt;+remove(int unique) : void&lt;/span&gt;&lt;/div&gt;" style="verticalAlign=top;align=left;overflow=fill;html=1;whiteSpace=wrap;hachureGap=4;fontFamily=Helvetica;labelBackgroundColor=none;fontSize=27;" parent="rCQZ0M5XMtd213yGawNZ-204" vertex="1">
          <mxGeometry x="1410" y="850" width="364.06" height="210" as="geometry" />
        </mxCell>
        <mxCell id="rCQZ0M5XMtd213yGawNZ-106" value="" style="endArrow=block;dashed=1;endFill=0;endSize=12;html=1;rounded=0;hachureGap=4;fontFamily=Helvetica;labelBackgroundColor=none;fontColor=default;fontSize=27;" parent="rCQZ0M5XMtd213yGawNZ-204" target="rCQZ0M5XMtd213yGawNZ-57" edge="1">
          <mxGeometry width="160" relative="1" as="geometry">
            <mxPoint x="1604.2905528717126" y="1081.6591611516185" as="sourcePoint" />
            <mxPoint x="1589.3827160493827" y="984.2528416967009" as="targetPoint" />
            <Array as="points">
              <mxPoint x="1118.8799248523887" y="1081.6591611516185" />
              <mxPoint x="1725.6432098765433" y="1081.6591611516185" />
              <mxPoint x="2059.3630166398284" y="1081.6591611516185" />
              <mxPoint x="1862.1649490069778" y="1081.6591611516185" />
              <mxPoint x="1589.1214707461083" y="1081.6591611516185" />
            </Array>
          </mxGeometry>
        </mxCell>
        <mxCell id="rCQZ0M5XMtd213yGawNZ-431" value="&lt;font style=&quot;font-size: 27px;&quot;&gt;implement&lt;/font&gt;" style="edgeLabel;html=1;align=center;verticalAlign=middle;resizable=0;points=[];fontSize=27;fontFamily=Helvetica;" parent="rCQZ0M5XMtd213yGawNZ-106" vertex="1" connectable="0">
          <mxGeometry x="-0.309" y="-3" relative="1" as="geometry">
            <mxPoint as="offset" />
          </mxGeometry>
        </mxCell>
        <mxCell id="rCQZ0M5XMtd213yGawNZ-432" value="&lt;span style=&quot;font-size: 27px;&quot;&gt;implement&lt;/span&gt;" style="edgeLabel;html=1;align=center;verticalAlign=middle;resizable=0;points=[];fontSize=27;fontFamily=Helvetica;" parent="rCQZ0M5XMtd213yGawNZ-106" vertex="1" connectable="0">
          <mxGeometry x="0.2546" y="5" relative="1" as="geometry">
            <mxPoint as="offset" />
          </mxGeometry>
        </mxCell>
        <mxCell id="rCQZ0M5XMtd213yGawNZ-107" value="&lt;span style=&quot;font-size: 27px; font-weight: 400;&quot;&gt;ProductRepo&lt;/span&gt;" style="swimlane;fontStyle=1;align=center;verticalAlign=top;childLayout=stackLayout;horizontal=1;startSize=41;horizontalStack=0;resizeParent=1;resizeParentMax=0;resizeLast=0;collapsible=1;marginBottom=0;whiteSpace=wrap;html=1;hachureGap=4;fontFamily=Helvetica;labelBackgroundColor=none;fontSize=27;" parent="rCQZ0M5XMtd213yGawNZ-204" vertex="1">
          <mxGeometry x="845.8364465915191" y="1159.2270990568813" width="937.54" height="701" as="geometry" />
        </mxCell>
        <mxCell id="rCQZ0M5XMtd213yGawNZ-110" value="&lt;div style=&quot;font-size: 27px;&quot;&gt;&lt;div style=&quot;font-size: 27px;&quot;&gt;&lt;span style=&quot;background-color: initial; font-size: 27px;&quot;&gt;+find(int unique) : Product&lt;/span&gt;&lt;/div&gt;&lt;div style=&quot;font-size: 27px;&quot;&gt;&lt;font style=&quot;background-color: initial; font-size: 27px;&quot;&gt;+add(&lt;/font&gt;&lt;span style=&quot;background-color: initial; font-size: 27px;&quot;&gt;Json newRec) : void&lt;/span&gt;&lt;/div&gt;&lt;div style=&quot;font-size: 27px;&quot;&gt;+remove(int unique) : void&lt;br style=&quot;font-size: 27px;&quot;&gt;&lt;/div&gt;&lt;div style=&quot;font-size: 27px;&quot;&gt;&lt;br style=&quot;font-size: 27px;&quot;&gt;&lt;/div&gt;&lt;div style=&quot;font-size: 27px;&quot;&gt;&lt;br style=&quot;font-size: 27px;&quot;&gt;&lt;/div&gt;&lt;div style=&quot;font-size: 27px;&quot;&gt;&lt;span style=&quot;background-color: initial; font-size: 27px;&quot;&gt;+findAllProductsByMainCat(String mainCat, ArrayList&amp;lt;Integer&amp;gt; alreadyHave) : ArrayList&amp;lt;Products&amp;gt;&lt;/span&gt;&lt;/div&gt;&lt;div style=&quot;font-size: 27px;&quot;&gt;&lt;div style=&quot;font-size: 27px;&quot;&gt;&lt;span style=&quot;background-color: initial; font-size: 27px;&quot;&gt;+findAllProductsBySubCat(&lt;/span&gt;&lt;span style=&quot;background-color: initial; font-size: 27px;&quot;&gt;String mainCat,&amp;nbsp;&lt;/span&gt;&lt;span style=&quot;background-color: initial; font-size: 27px;&quot;&gt;String subCat,&amp;nbsp;&lt;/span&gt;&lt;span style=&quot;background-color: initial; font-size: 27px;&quot;&gt;ArrayList&amp;lt;Integer&amp;gt; alreadyHave&lt;/span&gt;&lt;span style=&quot;background-color: initial; font-size: 27px;&quot;&gt;) : ArrayList&amp;lt;Products&amp;gt;&lt;/span&gt;&lt;/div&gt;&lt;div style=&quot;font-size: 27px;&quot;&gt;&lt;div style=&quot;font-size: 27px;&quot;&gt;&lt;span style=&quot;background-color: initial; font-size: 27px;&quot;&gt;+findAllProductsBySize(&lt;/span&gt;&lt;span style=&quot;background-color: initial; font-size: 27px;&quot;&gt;String mainCat,&amp;nbsp;&lt;/span&gt;&lt;span style=&quot;background-color: initial; font-size: 27px;&quot;&gt;String subCat,&amp;nbsp;&lt;/span&gt;&lt;span style=&quot;background-color: initial; font-size: 27px;&quot;&gt;String subCat,&amp;nbsp;&lt;/span&gt;&lt;span style=&quot;background-color: initial; font-size: 27px;&quot;&gt;ArrayList&amp;lt;Integer&amp;gt; alreadyHave&lt;/span&gt;&lt;span style=&quot;background-color: initial; font-size: 27px;&quot;&gt;) : ArrayList&amp;lt;Products&amp;gt;&lt;/span&gt;&lt;/div&gt;&lt;/div&gt;&lt;div style=&quot;font-size: 27px;&quot;&gt;&lt;span style=&quot;background-color: initial; font-size: 27px;&quot;&gt;&lt;br style=&quot;font-size: 27px;&quot;&gt;&lt;/span&gt;&lt;/div&gt;&lt;div style=&quot;font-size: 27px;&quot;&gt;&lt;span style=&quot;background-color: initial; font-size: 27px;&quot;&gt;+insertSaleRepo(salePrice newSale&lt;/span&gt;&lt;span style=&quot;background-color: initial; font-size: 27px;&quot;&gt;): void&lt;/span&gt;&lt;/div&gt;&lt;div style=&quot;font-size: 27px;&quot;&gt;&lt;span style=&quot;background-color: initial; font-size: 27px;&quot;&gt;+setSalePriceRepo(ArrayLisr&amp;lt;Integer&amp;gt; catNumbers, double ratio): void&lt;/span&gt;&lt;/div&gt;&lt;/div&gt;&lt;/div&gt;&lt;div style=&quot;font-size: 27px;&quot;&gt;&lt;font style=&quot;font-size: 27px;&quot;&gt;+updateDisRepo(&lt;/font&gt;&lt;span style=&quot;background-color: initial; font-size: 27px;&quot;&gt;ArrayList&amp;lt;Integer&amp;gt; catalogNumbersToUpdate, int idOfNewSale, double ratio): void&lt;/span&gt;&lt;span style=&quot;font-size: 27px; background-color: initial;&quot;&gt;&lt;br style=&quot;font-size: 27px;&quot;&gt;&lt;/span&gt;&lt;/div&gt;&lt;div style=&quot;font-size: 27px;&quot;&gt;&lt;br style=&quot;font-size: 27px;&quot;&gt;&lt;/div&gt;&lt;div style=&quot;font-size: 27px;&quot;&gt;&lt;div style=&quot;font-size: 27px;&quot;&gt;+updatePlacedItemRepo(int catNum, String WareOrStore) : void&lt;br style=&quot;font-size: 27px;&quot;&gt;&lt;/div&gt;&lt;div style=&quot;font-size: 27px;&quot;&gt;&lt;div style=&quot;font-size: 27px;&quot;&gt;+removeItemRepo(int catNum, String fromWhere) : void&lt;/div&gt;&lt;div style=&quot;font-size: 27px;&quot;&gt;&lt;br style=&quot;font-size: 27px;&quot;&gt;&lt;/div&gt;&lt;/div&gt;&lt;/div&gt;" style="text;strokeColor=none;fillColor=none;align=left;verticalAlign=top;spacingLeft=4;spacingRight=4;overflow=hidden;rotatable=0;points=[[0,0.5],[1,0.5]];portConstraint=eastwest;whiteSpace=wrap;html=1;fontFamily=Helvetica;labelBackgroundColor=none;fontSize=27;" parent="rCQZ0M5XMtd213yGawNZ-107" vertex="1">
          <mxGeometry y="41" width="937.54" height="660" as="geometry" />
        </mxCell>
        <mxCell id="rCQZ0M5XMtd213yGawNZ-114" value="" style="edgeStyle=none;orthogonalLoop=1;jettySize=auto;html=1;rounded=0;dashed=1;startArrow=none;startFill=0;endArrow=none;endFill=0;fontSize=27;fontFamily=Helvetica;" parent="rCQZ0M5XMtd213yGawNZ-204" edge="1">
          <mxGeometry width="80" relative="1" as="geometry">
            <mxPoint x="1110" y="1160" as="sourcePoint" />
            <mxPoint x="1118.8799248523887" y="1081.6591611516185" as="targetPoint" />
            <Array as="points" />
          </mxGeometry>
        </mxCell>
        <mxCell id="rCQZ0M5XMtd213yGawNZ-115" value="&lt;font style=&quot;font-size: 27px;&quot;&gt;&lt;span style=&quot;font-size: 27px; font-weight: 400;&quot;&gt;ItemRepo&lt;/span&gt;&lt;/font&gt;" style="swimlane;fontStyle=1;align=center;verticalAlign=top;childLayout=stackLayout;horizontal=1;startSize=37;horizontalStack=0;resizeParent=1;resizeParentMax=0;resizeLast=0;collapsible=1;marginBottom=0;whiteSpace=wrap;html=1;hachureGap=4;fontFamily=Helvetica;labelBackgroundColor=none;fontSize=27;" parent="rCQZ0M5XMtd213yGawNZ-204" vertex="1">
          <mxGeometry x="1801.49" y="1163.4" width="684.86" height="557" as="geometry" />
        </mxCell>
        <mxCell id="rCQZ0M5XMtd213yGawNZ-118" value="&lt;div style=&quot;font-size: 27px;&quot;&gt;&lt;h1 style=&quot;margin: 0px 0px 0px 4px; font-size: 27px;&quot;&gt;&lt;span style=&quot;font-weight: 400; font-size: 27px;&quot;&gt;+find(int unique) : Item&lt;/span&gt;&lt;/h1&gt;&lt;div style=&quot;font-size: 27px;&quot;&gt;&lt;font style=&quot;background-color: initial; font-size: 27px;&quot;&gt;+add(&lt;/font&gt;&lt;span style=&quot;background-color: initial; font-size: 27px;&quot;&gt;Json newRec) : void&lt;/span&gt;&lt;/div&gt;&lt;div style=&quot;font-size: 27px;&quot;&gt;+remove(int unique) : void&lt;span style=&quot;background-color: initial; font-size: 27px;&quot;&gt;&lt;br style=&quot;font-size: 27px;&quot;&gt;&lt;/span&gt;&lt;/div&gt;&lt;div style=&quot;font-size: 27px;&quot;&gt;&lt;br style=&quot;font-size: 27px;&quot;&gt;&lt;/div&gt;&lt;div style=&quot;font-size: 27px;&quot;&gt;&lt;span style=&quot;background-color: initial; font-size: 27px;&quot;&gt;+moveToWareRepo(int idToMove, Tuple&amp;lt;String, Integer&amp;gt; newPlace): void&lt;/span&gt;&lt;br style=&quot;font-size: 27px;&quot;&gt;&lt;/div&gt;&lt;div style=&quot;font-size: 27px;&quot;&gt;&lt;span style=&quot;font-size: 27px;&quot;&gt;+moveWare&lt;/span&gt;&lt;span style=&quot;background-color: initial; font-size: 27px;&quot;&gt;Store&lt;/span&gt;&lt;span style=&quot;background-color: initial; font-size: 27px;&quot;&gt;Repo(int idToMove, Tuple&amp;lt;String, Integer&amp;gt; newPlace): void&lt;/span&gt;&lt;/div&gt;&lt;div style=&quot;font-size: 27px;&quot;&gt;&lt;span style=&quot;background-color: initial; font-size: 27px;&quot;&gt;+sellitemCtrRepo(int idToSell) : void&lt;/span&gt;&lt;/div&gt;&lt;div style=&quot;font-size: 27px;&quot;&gt;&lt;span style=&quot;background-color: initial; font-size: 27px;&quot;&gt;&lt;br style=&quot;font-size: 27px;&quot;&gt;&lt;/span&gt;&lt;div style=&quot;font-size: 27px;&quot;&gt;&lt;span style=&quot;background-color: initial; font-size: 27px;&quot;&gt;+reportDamageRepo(int idToReport) : void&lt;/span&gt;&lt;/div&gt;&lt;div style=&quot;font-size: 27px;&quot;&gt;&lt;span style=&quot;background-color: initial; font-size: 27px;&quot;&gt;+reportExpRepo(int idToReport) : void&lt;/span&gt;&lt;br style=&quot;font-size: 27px;&quot;&gt;&lt;/div&gt;&lt;div style=&quot;font-size: 27px;&quot;&gt;&lt;span style=&quot;background-color: initial; font-size: 27px;&quot;&gt;&lt;br style=&quot;font-size: 27px;&quot;&gt;&lt;/span&gt;&lt;/div&gt;&lt;/div&gt;&lt;div style=&quot;font-size: 27px;&quot;&gt;&lt;font style=&quot;font-size: 27px;&quot;&gt;+findAllDefectiveRepo() : ArrayList&amp;lt;Item&amp;gt;&lt;/font&gt;&lt;/div&gt;&lt;div style=&quot;font-size: 27px;&quot;&gt;&lt;span style=&quot;background-color: initial; font-size: 27px;&quot;&gt;+findAllExpRepo() : ArrayList&amp;lt;Item&amp;gt;&lt;/span&gt;&lt;/div&gt;&lt;div style=&quot;font-size: 27px;&quot;&gt;&lt;br style=&quot;font-size: 27px;&quot;&gt;&lt;/div&gt;&lt;/div&gt;" style="text;strokeColor=none;fillColor=none;align=left;verticalAlign=top;spacingLeft=4;spacingRight=4;overflow=hidden;rotatable=0;points=[[0,0.5],[1,0.5]];portConstraint=eastwest;whiteSpace=wrap;html=1;fontFamily=Helvetica;labelBackgroundColor=none;fontSize=27;" parent="rCQZ0M5XMtd213yGawNZ-115" vertex="1">
          <mxGeometry y="37" width="684.86" height="520" as="geometry" />
        </mxCell>
        <mxCell id="rCQZ0M5XMtd213yGawNZ-125" style="edgeStyle=none;rounded=0;orthogonalLoop=1;jettySize=auto;html=1;fontSize=27;exitX=0.496;exitY=1.016;exitDx=0;exitDy=0;exitPerimeter=0;entryX=0.433;entryY=-0.003;entryDx=0;entryDy=0;entryPerimeter=0;fontFamily=Helvetica;" parent="rCQZ0M5XMtd213yGawNZ-204" source="rCQZ0M5XMtd213yGawNZ-123" target="rCQZ0M5XMtd213yGawNZ-252" edge="1">
          <mxGeometry relative="1" as="geometry">
            <mxPoint x="494.7919341563786" y="1668.3555239690872" as="targetPoint" />
            <Array as="points" />
            <mxPoint x="399.99560164609034" y="1235.0030869138209" as="sourcePoint" />
          </mxGeometry>
        </mxCell>
        <mxCell id="rCQZ0M5XMtd213yGawNZ-434" value="&lt;font style=&quot;font-size: 27px;&quot;&gt;pass request to&lt;/font&gt;" style="edgeLabel;html=1;align=center;verticalAlign=middle;resizable=0;points=[];fontSize=27;fontFamily=Helvetica;" parent="rCQZ0M5XMtd213yGawNZ-125" vertex="1" connectable="0">
          <mxGeometry x="0.1162" y="3" relative="1" as="geometry">
            <mxPoint as="offset" />
          </mxGeometry>
        </mxCell>
        <mxCell id="rCQZ0M5XMtd213yGawNZ-120" value="ProductControler" style="swimlane;fontStyle=1;align=center;verticalAlign=top;childLayout=stackLayout;horizontal=1;startSize=47;horizontalStack=0;resizeParent=1;resizeParentMax=0;resizeLast=0;collapsible=1;marginBottom=0;whiteSpace=wrap;html=1;fontSize=27;fontFamily=Helvetica;" parent="rCQZ0M5XMtd213yGawNZ-204" vertex="1">
          <mxGeometry x="22.04" y="863.24" width="758.96" height="507" as="geometry" />
        </mxCell>
        <mxCell id="rCQZ0M5XMtd213yGawNZ-123" value="&lt;div style=&quot;font-size: 27px;&quot;&gt;&lt;font style=&quot;font-size: 27px;&quot;&gt;+searchProdCTR(int catNum): boolean&lt;/font&gt;&lt;/div&gt;&lt;div style=&quot;font-size: 27px;&quot;&gt;&lt;span style=&quot;background-color: initial; font-size: 27px;&quot;&gt;+ addProdCTR(Json): void&lt;/span&gt;&lt;br style=&quot;font-size: 27px;&quot;&gt;&lt;/div&gt;&lt;div style=&quot;font-size: 27px;&quot;&gt;&lt;span style=&quot;background-color: initial; font-size: 27px;&quot;&gt;+ removeProdCTR(int catNum): void&lt;/span&gt;&lt;br style=&quot;font-size: 27px;&quot;&gt;&lt;/div&gt;&lt;div style=&quot;font-size: 27px;&quot;&gt;+removeItemCTR(int catNum, String fromWhere) : void&lt;/div&gt;&lt;div style=&quot;font-size: 27px;&quot;&gt;&lt;span style=&quot;background-color: initial; font-size: 27px;&quot;&gt;+updateSaleCTR(String mainCat, String subCat, String size, LocalDate from, LocalDate to, double ratio): void&lt;/span&gt;&lt;/div&gt;&lt;div style=&quot;font-size: 27px;&quot;&gt;&lt;font style=&quot;background-color: initial; font-size: 27px;&quot;&gt;&lt;span style=&quot;background-color: initial; font-size: 27px;&quot;&gt;+updateDisCTR(&lt;/span&gt;&lt;/font&gt;&lt;span style=&quot;background-color: initial; font-size: 27px;&quot;&gt;String mainCat, String subCat, String size, String manufacurer, double ratio): boolean&lt;/span&gt;&lt;br style=&quot;font-size: 27px;&quot;&gt;&lt;/div&gt;&lt;div style=&quot;font-size: 27px;&quot;&gt;&lt;span style=&quot;background-color: initial; font-size: 27px;&quot;&gt;+updatePlacedItemCTR(int catNum, String WareOrStore) : void&lt;/span&gt;&lt;/div&gt;&lt;div style=&quot;font-size: 27px;&quot;&gt;&lt;span style=&quot;background-color: initial; font-size: 27px;&quot;&gt;+invenReportByCatCTR(&lt;/span&gt;&lt;span style=&quot;background-color: initial; font-size: 27px;&quot;&gt;String mainCat, String subCat, String size) : String&lt;/span&gt;&lt;/div&gt;&lt;div style=&quot;font-size: 27px;&quot;&gt;&lt;span style=&quot;background-color: initial; font-size: 27px;&quot;&gt;+minimalAmount(int catNum) : boolean&lt;/span&gt;&lt;/div&gt;" style="text;strokeColor=none;fillColor=none;align=left;verticalAlign=top;spacingLeft=4;spacingRight=4;overflow=hidden;rotatable=0;points=[[0,0.5],[1,0.5]];portConstraint=eastwest;whiteSpace=wrap;html=1;fontSize=27;fontFamily=Helvetica;" parent="rCQZ0M5XMtd213yGawNZ-120" vertex="1">
          <mxGeometry y="47" width="758.96" height="460" as="geometry" />
        </mxCell>
        <mxCell id="rCQZ0M5XMtd213yGawNZ-126" value="ItemControler" style="swimlane;fontStyle=1;align=center;verticalAlign=top;childLayout=stackLayout;horizontal=1;startSize=51;horizontalStack=0;resizeParent=1;resizeParentMax=0;resizeLast=0;collapsible=1;marginBottom=0;whiteSpace=wrap;html=1;fontSize=27;fontFamily=Helvetica;" parent="rCQZ0M5XMtd213yGawNZ-204" vertex="1">
          <mxGeometry x="2507.1543209876545" y="749.1375228988504" width="600.09" height="581" as="geometry" />
        </mxCell>
        <mxCell id="rCQZ0M5XMtd213yGawNZ-129" value="&lt;div style=&quot;font-size: 27px;&quot;&gt;+searchItemCTR(int id): boolean&lt;/div&gt;+ addItemCTR(Json): void&lt;div style=&quot;font-size: 27px;&quot;&gt;&lt;br style=&quot;font-size: 27px;&quot;&gt;&lt;div style=&quot;font-size: 27px;&quot;&gt;+moveToWareCTR(int idToMove, Tuple&amp;lt;String, Integer&amp;gt; newPlace): int&lt;/div&gt;&lt;div style=&quot;font-size: 27px;&quot;&gt;+&lt;span style=&quot;background-color: initial; font-size: 27px;&quot;&gt;moveWare&lt;/span&gt;&lt;span style=&quot;background-color: initial; font-size: 27px;&quot;&gt;Store&lt;/span&gt;&lt;span style=&quot;background-color: initial; font-size: 27px;&quot;&gt;CTR(int idToMove, Tuple&amp;lt;String, Integer&amp;gt; newPlace): int&lt;/span&gt;&lt;/div&gt;&lt;div style=&quot;font-size: 27px;&quot;&gt;&lt;span style=&quot;background-color: initial; font-size: 27px;&quot;&gt;&lt;br style=&quot;font-size: 27px;&quot;&gt;&lt;/span&gt;&lt;/div&gt;&lt;div style=&quot;font-size: 27px;&quot;&gt;&lt;div style=&quot;font-size: 27px;&quot;&gt;&lt;div style=&quot;font-size: 27px;&quot;&gt;&lt;span style=&quot;background-color: initial; font-size: 27px;&quot;&gt;+removeItemCTR(int idToRem) : Tuple&amp;lt;Integet, String&amp;gt;&lt;/span&gt;&lt;/div&gt;&lt;div style=&quot;font-size: 27px;&quot;&gt;&lt;span style=&quot;background-color: initial; font-size: 27px;&quot;&gt;+reportDamage(int idToReport) : void&lt;/span&gt;&lt;br style=&quot;font-size: 27px;&quot;&gt;&lt;/div&gt;&lt;div style=&quot;font-size: 27px;&quot;&gt;&lt;div style=&quot;font-size: 27px;&quot;&gt;&lt;div style=&quot;font-size: 27px;&quot;&gt;&lt;span style=&quot;background-color: initial; font-size: 27px;&quot;&gt;+reportExp(int idToReport) : void&lt;/span&gt;&lt;/div&gt;&lt;div style=&quot;font-size: 27px;&quot;&gt;&lt;span style=&quot;background-color: initial; font-size: 27px;&quot;&gt;&lt;br style=&quot;font-size: 27px;&quot;&gt;&lt;/span&gt;&lt;/div&gt;&lt;/div&gt;&lt;/div&gt;&lt;/div&gt;&lt;/div&gt;&lt;div style=&quot;font-size: 27px;&quot;&gt;&lt;span style=&quot;font-size: 27px; background-color: initial;&quot;&gt;+expReport() : String&lt;/span&gt;&lt;/div&gt;&lt;div style=&quot;font-size: 27px;&quot;&gt;&lt;span style=&quot;font-size: 27px;&quot;&gt;+defectiveReport() : String&lt;/span&gt;&lt;span style=&quot;font-size: 27px; background-color: initial;&quot;&gt;&lt;br style=&quot;font-size: 27px;&quot;&gt;&lt;/span&gt;&lt;/div&gt;&lt;/div&gt;" style="text;strokeColor=none;fillColor=none;align=left;verticalAlign=top;spacingLeft=4;spacingRight=4;overflow=hidden;rotatable=0;points=[[0,0.5],[1,0.5]];portConstraint=eastwest;whiteSpace=wrap;html=1;fontSize=27;fontFamily=Helvetica;" parent="rCQZ0M5XMtd213yGawNZ-126" vertex="1">
          <mxGeometry y="51" width="600.09" height="530" as="geometry" />
        </mxCell>
        <mxCell id="rCQZ0M5XMtd213yGawNZ-130" style="edgeStyle=none;rounded=0;orthogonalLoop=1;jettySize=auto;html=1;fontSize=27;fontFamily=Helvetica;" parent="rCQZ0M5XMtd213yGawNZ-204" edge="1">
          <mxGeometry relative="1" as="geometry">
            <mxPoint x="2504.3632098765434" y="957.3176529407285" as="sourcePoint" />
            <mxPoint x="2085.150456253355" y="1163.4007341853264" as="targetPoint" />
            <Array as="points">
              <mxPoint x="2085.150456253355" y="967.2209589044277" />
            </Array>
          </mxGeometry>
        </mxCell>
        <mxCell id="rCQZ0M5XMtd213yGawNZ-472" value="&lt;font style=&quot;font-size: 27px;&quot;&gt;pass request to&amp;nbsp;&lt;/font&gt;" style="edgeLabel;html=1;align=center;verticalAlign=middle;resizable=0;points=[];fontSize=27;fontFamily=Helvetica;" parent="rCQZ0M5XMtd213yGawNZ-130" vertex="1" connectable="0">
          <mxGeometry x="-0.148" y="-3" relative="1" as="geometry">
            <mxPoint as="offset" />
          </mxGeometry>
        </mxCell>
        <mxCell id="rCQZ0M5XMtd213yGawNZ-163" value="&lt;h2 style=&quot;font-size: 27px;&quot;&gt;Domain Layer&lt;/h2&gt;" style="shape=umlFrame;whiteSpace=wrap;html=1;pointerEvents=0;width=170;height=60;fontFamily=Helvetica;labelBackgroundColor=none;fillColor=#f8cecc;strokeColor=#b85450;fontSize=27;gradientColor=#ea6b66;" parent="rCQZ0M5XMtd213yGawNZ-204" vertex="1">
          <mxGeometry width="3139.9999999999995" height="2909.9999999999995" as="geometry" />
        </mxCell>
        <mxCell id="rCQZ0M5XMtd213yGawNZ-222" value="" style="edgeStyle=none;orthogonalLoop=1;jettySize=auto;html=1;rounded=0;dashed=1;startArrow=none;startFill=0;endArrow=none;endFill=0;fontSize=27;fontFamily=Helvetica;" parent="rCQZ0M5XMtd213yGawNZ-204" edge="1">
          <mxGeometry width="80" relative="1" as="geometry">
            <mxPoint x="2059.3630166398284" y="1163.4007341853264" as="sourcePoint" />
            <mxPoint x="2059.3630166398284" y="1081.6591611516183" as="targetPoint" />
            <Array as="points" />
          </mxGeometry>
        </mxCell>
        <mxCell id="rCQZ0M5XMtd213yGawNZ-236" value="salePrice" style="swimlane;fontStyle=0;childLayout=stackLayout;horizontal=1;startSize=26;fillColor=none;horizontalStack=0;resizeParent=1;resizeParentMax=0;resizeLast=0;collapsible=1;marginBottom=0;whiteSpace=wrap;html=1;fontSize=27;fontFamily=Helvetica;" parent="rCQZ0M5XMtd213yGawNZ-204" vertex="1">
          <mxGeometry x="2050.003991769547" y="2350.001326560217" width="332.81" height="259.99923076923073" as="geometry" />
        </mxCell>
        <mxCell id="rCQZ0M5XMtd213yGawNZ-237" value="- startSale LocalDate" style="text;strokeColor=none;fillColor=none;align=left;verticalAlign=top;spacingLeft=4;spacingRight=4;overflow=hidden;rotatable=0;points=[[0,0.5],[1,0.5]];portConstraint=eastwest;whiteSpace=wrap;html=1;fontSize=27;fontFamily=Helvetica;" parent="rCQZ0M5XMtd213yGawNZ-236" vertex="1">
          <mxGeometry y="26" width="332.81" height="61.5576923076923" as="geometry" />
        </mxCell>
        <mxCell id="rCQZ0M5XMtd213yGawNZ-238" value="-endSale LocalDate" style="text;strokeColor=none;fillColor=none;align=left;verticalAlign=top;spacingLeft=4;spacingRight=4;overflow=hidden;rotatable=0;points=[[0,0.5],[1,0.5]];portConstraint=eastwest;whiteSpace=wrap;html=1;fontSize=27;fontFamily=Helvetica;" parent="rCQZ0M5XMtd213yGawNZ-236" vertex="1">
          <mxGeometry y="87.55769230769229" width="332.81" height="55.96153846153846" as="geometry" />
        </mxCell>
        <mxCell id="rCQZ0M5XMtd213yGawNZ-239" value="- discountRatio doble" style="text;strokeColor=none;fillColor=none;align=left;verticalAlign=top;spacingLeft=4;spacingRight=4;overflow=hidden;rotatable=0;points=[[0,0.5],[1,0.5]];portConstraint=eastwest;whiteSpace=wrap;html=1;fontSize=27;fontFamily=Helvetica;" parent="rCQZ0M5XMtd213yGawNZ-236" vertex="1">
          <mxGeometry y="143.51923076923075" width="332.81" height="36.48" as="geometry" />
        </mxCell>
        <mxCell id="rCQZ0M5XMtd213yGawNZ-243" value="- idSale int" style="text;strokeColor=none;fillColor=none;align=left;verticalAlign=top;spacingLeft=4;spacingRight=4;overflow=hidden;rotatable=0;points=[[0,0.5],[1,0.5]];portConstraint=eastwest;whiteSpace=wrap;html=1;fontSize=27;fontFamily=Helvetica;" parent="rCQZ0M5XMtd213yGawNZ-236" vertex="1">
          <mxGeometry y="179.99923076923073" width="332.81" height="80" as="geometry" />
        </mxCell>
        <mxCell id="rCQZ0M5XMtd213yGawNZ-252" value="&lt;span style=&quot;font-size: 27px; text-align: start;&quot;&gt;Inventory&lt;/span&gt;" style="swimlane;fontStyle=0;childLayout=stackLayout;horizontal=1;startSize=26;fillColor=none;horizontalStack=0;resizeParent=1;resizeParentMax=0;resizeLast=0;collapsible=1;marginBottom=0;whiteSpace=wrap;html=1;fontSize=27;fontFamily=Helvetica;" parent="rCQZ0M5XMtd213yGawNZ-204" vertex="1">
          <mxGeometry x="30.88" y="1970" width="788.23" height="670" as="geometry" />
        </mxCell>
        <mxCell id="rCQZ0M5XMtd213yGawNZ-254" value="+ currentDate LocalDate&lt;div style=&quot;font-size: 27px;&quot;&gt;- amountProducts int&lt;div style=&quot;font-size: 27px;&quot;&gt;--------------------------------------------------------------------------------------&lt;/div&gt;&lt;div style=&quot;font-size: 27px;&quot;&gt;+findProdByCatalogNumInven(int CatNum) : Product&lt;/div&gt;&lt;div style=&quot;font-size: 27px;&quot;&gt;+addProductToInventory(Json newProdRec) : void&lt;/div&gt;&lt;div style=&quot;font-size: 27px;&quot;&gt;+removeProdInven(int CatalogNum) : void&lt;/div&gt;&lt;div style=&quot;font-size: 27px;&quot;&gt;&lt;span style=&quot;background-color: initial; font-size: 27px;&quot;&gt;+removeItemInven(int catNum, String fromWhere) : void&lt;/span&gt;&lt;/div&gt;&lt;div style=&quot;font-size: 27px;&quot;&gt;&lt;span style=&quot;background-color: initial; font-size: 27px;&quot;&gt;&lt;br style=&quot;font-size: 27px;&quot;&gt;&lt;/span&gt;&lt;/div&gt;&lt;div style=&quot;font-size: 27px;&quot;&gt;+setSalePriceInven(&lt;span style=&quot;background-color: initial; font-size: 27px;&quot;&gt;String mainCat, String subCat, String size, LocalDate from, LocalDate to, double ratio) : void&lt;/span&gt;&lt;/div&gt;&lt;div style=&quot;font-size: 27px;&quot;&gt;+setDiscount(&lt;span style=&quot;background-color: initial; font-size: 27px;&quot;&gt;String mainCat, String subCat, String size,&amp;nbsp;&lt;/span&gt;&lt;span style=&quot;background-color: initial; font-size: 27px;&quot;&gt;double ratio, String manufactor) : boolean&lt;/span&gt;&lt;/div&gt;&lt;div style=&quot;font-size: 27px;&quot;&gt;+updatePlacedItemInven(int catNum, String WareOrStore) : void&lt;br style=&quot;font-size: 27px;&quot;&gt;&lt;/div&gt;&lt;div style=&quot;font-size: 27px;&quot;&gt;&lt;div style=&quot;font-size: 27px;&quot;&gt;+removeItemInven(int catNum, String fromWhere) : void&lt;/div&gt;&lt;div style=&quot;font-size: 27px;&quot;&gt;&lt;span style=&quot;background-color: initial; font-size: 27px;&quot;&gt;+invenReportByCat(&lt;/span&gt;&lt;span style=&quot;background-color: initial; font-size: 27px;&quot;&gt;String mainCat, String subCat, String size) : String&lt;/span&gt;&lt;br style=&quot;font-size: 27px;&quot;&gt;&lt;/div&gt;&lt;div style=&quot;font-size: 27px;&quot;&gt;&lt;span style=&quot;background-color: initial; font-size: 27px;&quot;&gt;+checkMinimalAmountInven(int catNum) : boolean&lt;/span&gt;&lt;/div&gt;&lt;div style=&quot;font-size: 27px;&quot;&gt;&lt;br style=&quot;font-size: 27px;&quot;&gt;&lt;/div&gt;&lt;/div&gt;&lt;/div&gt;" style="text;strokeColor=none;fillColor=none;align=left;verticalAlign=top;spacingLeft=4;spacingRight=4;overflow=hidden;rotatable=0;points=[[0,0.5],[1,0.5]];portConstraint=eastwest;whiteSpace=wrap;html=1;fontSize=27;fontFamily=Helvetica;" parent="rCQZ0M5XMtd213yGawNZ-252" vertex="1">
          <mxGeometry y="26" width="788.23" height="644" as="geometry" />
        </mxCell>
        <mxCell id="rCQZ0M5XMtd213yGawNZ-303" value="Server" style="swimlane;fontStyle=1;align=center;verticalAlign=top;childLayout=stackLayout;horizontal=1;startSize=39;horizontalStack=0;resizeParent=1;resizeParentMax=0;resizeLast=0;collapsible=1;marginBottom=0;whiteSpace=wrap;html=1;fontSize=27;fontFamily=Helvetica;" parent="rCQZ0M5XMtd213yGawNZ-204" vertex="1">
          <mxGeometry x="620.25" y="91.02" width="1563.54" height="750" as="geometry" />
        </mxCell>
        <mxCell id="rCQZ0M5XMtd213yGawNZ-306" value="&lt;div style=&quot;font-size: 27px;&quot;&gt;+searchProdService(int catNum) : boolean&lt;/div&gt;&lt;div style=&quot;font-size: 27px;&quot;&gt;+searchItemService&lt;span style=&quot;background-color: initial; font-size: 27px;&quot;&gt;(int id) : boolean&lt;/span&gt;&lt;/div&gt;&lt;div style=&quot;font-size: 27px;&quot;&gt;&lt;span style=&quot;background-color: initial; font-size: 27px;&quot;&gt;+addItem&lt;/span&gt;Service&lt;span style=&quot;background-color: initial; font-size: 27px;&quot;&gt;(Json newItem) : void&lt;/span&gt;&lt;/div&gt;&lt;div style=&quot;font-size: 27px;&quot;&gt;+addProductService&lt;span style=&quot;background-color: initial; font-size: 27px;&quot;&gt;(Json newProd) : void&lt;/span&gt;&lt;/div&gt;&lt;div style=&quot;font-size: 27px;&quot;&gt;&lt;br style=&quot;font-size: 27px;&quot;&gt;&lt;/div&gt;&lt;div style=&quot;font-size: 27px;&quot;&gt;&lt;div style=&quot;font-size: 27px;&quot;&gt;+removeProductService&lt;span style=&quot;background-color: initial; font-size: 27px;&quot;&gt;(int catalogNum) : void&lt;/span&gt;&lt;/div&gt;&lt;div style=&quot;font-size: 27px;&quot;&gt;&lt;br style=&quot;font-size: 27px;&quot;&gt;&lt;/div&gt;&lt;div style=&quot;font-size: 27px;&quot;&gt;&lt;span style=&quot;background-color: initial; font-size: 27px;&quot;&gt;+updateSaleService(&lt;/span&gt;&lt;span style=&quot;background-color: initial; font-size: 27px;&quot;&gt;String mainCat, String subCat, String size, LocalDate from, LocalDate to, double ratio) : void&lt;/span&gt;&lt;br style=&quot;font-size: 27px;&quot;&gt;&lt;/div&gt;&lt;div style=&quot;font-size: 27px;&quot;&gt;&lt;span style=&quot;background-color: initial; font-size: 27px;&quot;&gt;+updateDiscountService(&lt;/span&gt;&lt;span style=&quot;background-color: initial; font-size: 27px;&quot;&gt;String mainCat, String subCat, String size,&amp;nbsp;&lt;/span&gt;&lt;span style=&quot;background-color: initial; font-size: 27px;&quot;&gt;double ratio, String manufactor) : boolean&lt;/span&gt;&lt;br style=&quot;font-size: 27px;&quot;&gt;&lt;/div&gt;&lt;div style=&quot;font-size: 27px;&quot;&gt;&lt;span style=&quot;background-color: initial; font-size: 27px;&quot;&gt;&lt;br style=&quot;font-size: 27px;&quot;&gt;&lt;/span&gt;&lt;/div&gt;&lt;div style=&quot;font-size: 27px;&quot;&gt;&lt;div style=&quot;font-size: 27px;&quot;&gt;&lt;span style=&quot;background-color: initial; font-size: 27px;&quot;&gt;+moveToWareService(int id, Tuple&amp;lt;String, Integer&amp;gt; newPlace) : void&lt;/span&gt;&lt;/div&gt;&lt;/div&gt;&lt;div style=&quot;font-size: 27px;&quot;&gt;&lt;div style=&quot;font-size: 27px;&quot;&gt;&lt;span style=&quot;background-color: initial; font-size: 27px;&quot;&gt;+moveToStoreService(int id, Tuple&amp;lt;String, Integer&amp;gt; newPlace) : void&lt;/span&gt;&lt;/div&gt;&lt;/div&gt;&lt;div style=&quot;font-size: 27px;&quot;&gt;&lt;span style=&quot;background-color: initial; font-size: 27px;&quot;&gt;&lt;br style=&quot;font-size: 27px;&quot;&gt;&lt;/span&gt;&lt;/div&gt;&lt;div style=&quot;font-size: 27px;&quot;&gt;&lt;span style=&quot;background-color: initial; font-size: 27px;&quot;&gt;+checkMinimalAmountService(int catalogNum) : boolean&lt;/span&gt;&lt;/div&gt;&lt;div style=&quot;font-size: 27px;&quot;&gt;&lt;div style=&quot;font-size: 27px;&quot;&gt;&lt;span style=&quot;background-color: initial; font-size: 27px;&quot;&gt;+removeItemService(int idToRemove) : void&lt;/span&gt;&lt;/div&gt;&lt;/div&gt;&lt;div style=&quot;font-size: 27px;&quot;&gt;&lt;span style=&quot;background-color: initial; font-size: 27px;&quot;&gt;+reportDamageService(int idToReport) : void&lt;/span&gt;&lt;/div&gt;&lt;div style=&quot;font-size: 27px;&quot;&gt;&lt;div style=&quot;font-size: 27px;&quot;&gt;&lt;span style=&quot;background-color: initial; font-size: 27px;&quot;&gt;+reportExpService(int idToReport) : void&lt;/span&gt;&lt;/div&gt;&lt;/div&gt;&lt;div style=&quot;font-size: 27px;&quot;&gt;&lt;span style=&quot;background-color: initial; font-size: 27px;&quot;&gt;&lt;br style=&quot;font-size: 27px;&quot;&gt;&lt;/span&gt;&lt;/div&gt;&lt;div style=&quot;font-size: 27px;&quot;&gt;&lt;span style=&quot;background-color: initial; font-size: 27px;&quot;&gt;+invenReportByCatService(&lt;/span&gt;&lt;span style=&quot;background-color: initial; font-size: 27px;&quot;&gt;String mainCat, String subCat, String size) : String&lt;/span&gt;&lt;span style=&quot;background-color: initial; font-size: 27px;&quot;&gt;&lt;br style=&quot;font-size: 27px;&quot;&gt;&lt;/span&gt;&lt;/div&gt;&lt;div style=&quot;font-size: 27px;&quot;&gt;&lt;span style=&quot;background-color: initial; font-size: 27px;&quot;&gt;+expReportCTR() : String&lt;/span&gt;&lt;/div&gt;&lt;div style=&quot;font-size: 27px;&quot;&gt;+defectiveReportCTR() : String&lt;span style=&quot;background-color: initial; font-size: 27px;&quot;&gt;&lt;br style=&quot;font-size: 27px;&quot;&gt;&lt;/span&gt;&lt;/div&gt;&lt;/div&gt;" style="text;strokeColor=none;fillColor=none;align=left;verticalAlign=top;spacingLeft=4;spacingRight=4;overflow=hidden;rotatable=0;points=[[0,0.5],[1,0.5]];portConstraint=eastwest;whiteSpace=wrap;html=1;fontSize=27;fontFamily=Helvetica;" parent="rCQZ0M5XMtd213yGawNZ-303" vertex="1">
          <mxGeometry y="39" width="1563.54" height="711" as="geometry" />
        </mxCell>
        <mxCell id="rCQZ0M5XMtd213yGawNZ-309" style="edgeStyle=none;rounded=0;orthogonalLoop=1;jettySize=auto;html=1;entryX=0.399;entryY=-0.001;entryDx=0;entryDy=0;entryPerimeter=0;fontSize=27;fontFamily=Helvetica;" parent="rCQZ0M5XMtd213yGawNZ-204" target="rCQZ0M5XMtd213yGawNZ-120" edge="1">
          <mxGeometry relative="1" as="geometry">
            <mxPoint x="610" y="470" as="sourcePoint" />
            <Array as="points">
              <mxPoint x="330" y="470" />
            </Array>
          </mxGeometry>
        </mxCell>
        <mxCell id="rCQZ0M5XMtd213yGawNZ-430" value="&lt;span style=&quot;font-size: 27px;&quot;&gt;pass request to&lt;/span&gt;" style="edgeLabel;html=1;align=center;verticalAlign=middle;resizable=0;points=[];fontSize=27;fontFamily=Helvetica;" parent="rCQZ0M5XMtd213yGawNZ-309" vertex="1" connectable="0">
          <mxGeometry x="-0.5494" y="6" relative="1" as="geometry">
            <mxPoint as="offset" />
          </mxGeometry>
        </mxCell>
        <mxCell id="rCQZ0M5XMtd213yGawNZ-310" style="edgeStyle=none;rounded=0;orthogonalLoop=1;jettySize=auto;html=1;exitX=1.002;exitY=0.72;exitDx=0;exitDy=0;exitPerimeter=0;entryX=0.294;entryY=-0.003;entryDx=0;entryDy=0;entryPerimeter=0;fontSize=27;fontFamily=Helvetica;" parent="rCQZ0M5XMtd213yGawNZ-204" source="rCQZ0M5XMtd213yGawNZ-306" target="rCQZ0M5XMtd213yGawNZ-126" edge="1">
          <mxGeometry relative="1" as="geometry">
            <Array as="points">
              <mxPoint x="2684" y="531" />
            </Array>
          </mxGeometry>
        </mxCell>
        <mxCell id="rCQZ0M5XMtd213yGawNZ-428" value="&lt;font style=&quot;font-size: 27px;&quot;&gt;pass request to&lt;/font&gt;" style="edgeLabel;html=1;align=center;verticalAlign=middle;resizable=0;points=[];fontSize=27;fontFamily=Helvetica;" parent="rCQZ0M5XMtd213yGawNZ-310" vertex="1" connectable="0">
          <mxGeometry x="-0.3142" y="-2" relative="1" as="geometry">
            <mxPoint as="offset" />
          </mxGeometry>
        </mxCell>
        <mxCell id="rCQZ0M5XMtd213yGawNZ-312" style="edgeStyle=none;rounded=0;orthogonalLoop=1;jettySize=auto;html=1;entryX=0.147;entryY=1.006;entryDx=0;entryDy=0;entryPerimeter=0;fontSize=27;exitX=1.001;exitY=0.023;exitDx=0;exitDy=0;exitPerimeter=0;fontFamily=Helvetica;" parent="rCQZ0M5XMtd213yGawNZ-204" source="rCQZ0M5XMtd213yGawNZ-252" target="rCQZ0M5XMtd213yGawNZ-110" edge="1">
          <mxGeometry relative="1" as="geometry" />
        </mxCell>
        <mxCell id="rCQZ0M5XMtd213yGawNZ-433" value="&lt;font style=&quot;font-size: 27px;&quot;&gt;has a&lt;/font&gt;" style="edgeLabel;html=1;align=center;verticalAlign=middle;resizable=0;points=[];fontSize=27;fontFamily=Helvetica;" parent="rCQZ0M5XMtd213yGawNZ-312" vertex="1" connectable="0">
          <mxGeometry x="0.0137" relative="1" as="geometry">
            <mxPoint as="offset" />
          </mxGeometry>
        </mxCell>
        <mxCell id="rCQZ0M5XMtd213yGawNZ-316" style="edgeStyle=none;rounded=0;orthogonalLoop=1;jettySize=auto;html=1;entryX=0.5;entryY=0;entryDx=0;entryDy=0;fontSize=27;fontFamily=Helvetica;" parent="rCQZ0M5XMtd213yGawNZ-204" source="rCQZ0M5XMtd213yGawNZ-118" target="rCQZ0M5XMtd213yGawNZ-149" edge="1">
          <mxGeometry relative="1" as="geometry">
            <mxPoint x="2110" y="1810" as="sourcePoint" />
          </mxGeometry>
        </mxCell>
        <mxCell id="rCQZ0M5XMtd213yGawNZ-465" value="&lt;span style=&quot;font-size: 27px;&quot;&gt;contains&lt;/span&gt;" style="edgeLabel;html=1;align=center;verticalAlign=middle;resizable=0;points=[];fontSize=27;fontFamily=Helvetica;" parent="rCQZ0M5XMtd213yGawNZ-316" vertex="1" connectable="0">
          <mxGeometry x="0.1478" y="-2" relative="1" as="geometry">
            <mxPoint as="offset" />
          </mxGeometry>
        </mxCell>
        <mxCell id="rCQZ0M5XMtd213yGawNZ-149" value="Item" style="swimlane;fontStyle=0;childLayout=stackLayout;horizontal=1;startSize=26;fillColor=none;horizontalStack=0;resizeParent=1;resizeParentMax=0;resizeLast=0;collapsible=1;marginBottom=0;whiteSpace=wrap;html=1;fontSize=27;fontFamily=Helvetica;" parent="rCQZ0M5XMtd213yGawNZ-204" vertex="1">
          <mxGeometry x="2078.996172839506" y="1970.0032848026349" width="465.18518518518516" height="254.69319633070592" as="geometry" />
        </mxCell>
        <mxCell id="rCQZ0M5XMtd213yGawNZ-151" value="-id int" style="text;strokeColor=none;fillColor=none;align=left;verticalAlign=top;spacingLeft=4;spacingRight=4;overflow=hidden;rotatable=0;points=[[0,0.5],[1,0.5]];portConstraint=eastwest;whiteSpace=wrap;html=1;fontSize=27;fontFamily=Helvetica;" parent="rCQZ0M5XMtd213yGawNZ-149" vertex="1">
          <mxGeometry y="26" width="465.18518518518516" height="27.085187661651236" as="geometry" />
        </mxCell>
        <mxCell id="rCQZ0M5XMtd213yGawNZ-152" value="-&lt;span style=&quot;font-size: 27px;&quot;&gt;expirationDate LocalDate&lt;/span&gt;" style="text;strokeColor=none;fillColor=none;align=left;verticalAlign=top;spacingLeft=4;spacingRight=4;overflow=hidden;rotatable=0;points=[[0,0.5],[1,0.5]];portConstraint=eastwest;whiteSpace=wrap;html=1;fontSize=27;fontFamily=Helvetica;" parent="rCQZ0M5XMtd213yGawNZ-149" vertex="1">
          <mxGeometry y="53.08518766165123" width="465.18518518518516" height="40.783037629338246" as="geometry" />
        </mxCell>
        <mxCell id="rCQZ0M5XMtd213yGawNZ-153" value="-place tuple&amp;lt;String, Integer&amp;gt;" style="text;strokeColor=none;fillColor=none;align=left;verticalAlign=top;spacingLeft=4;spacingRight=4;overflow=hidden;rotatable=0;points=[[0,0.5],[1,0.5]];portConstraint=eastwest;whiteSpace=wrap;html=1;fontSize=27;fontFamily=Helvetica;" parent="rCQZ0M5XMtd213yGawNZ-149" vertex="1">
          <mxGeometry y="93.86822529098947" width="465.18518518518516" height="42.10713325240796" as="geometry" />
        </mxCell>
        <mxCell id="rCQZ0M5XMtd213yGawNZ-154" value="&lt;span style=&quot;text-wrap: nowrap; font-size: 27px;&quot;&gt;-catalogNumItem int&lt;/span&gt;" style="text;strokeColor=none;fillColor=none;align=left;verticalAlign=top;spacingLeft=4;spacingRight=4;overflow=hidden;rotatable=0;points=[[0,0.5],[1,0.5]];portConstraint=eastwest;whiteSpace=wrap;html=1;fontSize=27;fontFamily=Helvetica;" parent="rCQZ0M5XMtd213yGawNZ-149" vertex="1">
          <mxGeometry y="135.97535854339742" width="465.18518518518516" height="42.26408871197043" as="geometry" />
        </mxCell>
        <mxCell id="rCQZ0M5XMtd213yGawNZ-156" value="&lt;span style=&quot;text-wrap: nowrap; font-size: 27px;&quot;&gt;-StoreOrWare String&lt;/span&gt;" style="text;strokeColor=none;fillColor=none;align=left;verticalAlign=top;spacingLeft=4;spacingRight=4;overflow=hidden;rotatable=0;points=[[0,0.5],[1,0.5]];portConstraint=eastwest;whiteSpace=wrap;html=1;fontSize=27;fontFamily=Helvetica;" parent="rCQZ0M5XMtd213yGawNZ-149" vertex="1">
          <mxGeometry y="178.23944725536785" width="465.18518518518516" height="38.22687453766903" as="geometry" />
        </mxCell>
        <mxCell id="rCQZ0M5XMtd213yGawNZ-416" value="&lt;span style=&quot;text-wrap: nowrap; font-size: 27px;&quot;&gt;-enum Status&lt;/span&gt;" style="text;strokeColor=none;fillColor=none;align=left;verticalAlign=top;spacingLeft=4;spacingRight=4;overflow=hidden;rotatable=0;points=[[0,0.5],[1,0.5]];portConstraint=eastwest;whiteSpace=wrap;html=1;fontSize=27;fontFamily=Helvetica;" parent="rCQZ0M5XMtd213yGawNZ-149" vertex="1">
          <mxGeometry y="216.46632179303688" width="465.18518518518516" height="38.22687453766903" as="geometry" />
        </mxCell>
        <mxCell id="rCQZ0M5XMtd213yGawNZ-132" value="&lt;span style=&quot;font-style: italic; text-wrap: nowrap; font-size: 27px;&quot;&gt;Product&lt;/span&gt;" style="swimlane;fontStyle=0;childLayout=stackLayout;horizontal=1;startSize=26;fillColor=none;horizontalStack=0;resizeParent=1;resizeParentMax=0;resizeLast=0;collapsible=1;marginBottom=0;whiteSpace=wrap;html=1;fontFamily=Helvetica;fontSize=27;" parent="rCQZ0M5XMtd213yGawNZ-204" vertex="1">
          <mxGeometry x="1344.8263775784067" y="2090.0004478869737" width="394.38" height="682.4992371801346" as="geometry">
            <mxRectangle x="110" y="170" width="90" height="30" as="alternateBounds" />
          </mxGeometry>
        </mxCell>
        <mxCell id="rCQZ0M5XMtd213yGawNZ-133" value="-size String" style="text;strokeColor=none;fillColor=none;align=left;verticalAlign=top;spacingLeft=4;spacingRight=4;overflow=hidden;rotatable=0;points=[[0,0.5],[1,0.5]];portConstraint=eastwest;whiteSpace=wrap;html=1;fontFamily=Helvetica;fontSize=27;" parent="rCQZ0M5XMtd213yGawNZ-132" vertex="1">
          <mxGeometry y="26" width="394.38" height="41.764280371518375" as="geometry" />
        </mxCell>
        <mxCell id="rCQZ0M5XMtd213yGawNZ-134" value="-catN&lt;span style=&quot;text-wrap: nowrap; font-size: 27px;&quot;&gt;ame String&lt;/span&gt;&lt;br style=&quot;font-size: 27px;&quot;&gt;&lt;div style=&quot;font-size: 27px;&quot;&gt;&lt;span style=&quot;text-wrap: nowrap; font-size: 27px;&quot;&gt;&lt;br style=&quot;font-size: 27px;&quot;&gt;&lt;/span&gt;&lt;/div&gt;" style="text;strokeColor=none;fillColor=none;align=left;verticalAlign=top;spacingLeft=4;spacingRight=4;overflow=hidden;rotatable=0;points=[[0,0.5],[1,0.5]];portConstraint=eastwest;whiteSpace=wrap;html=1;fontFamily=Helvetica;fontSize=27;" parent="rCQZ0M5XMtd213yGawNZ-132" vertex="1">
          <mxGeometry y="67.76428037151837" width="394.38" height="44.97691732317363" as="geometry" />
        </mxCell>
        <mxCell id="rCQZ0M5XMtd213yGawNZ-135" value="-subCatN&lt;span style=&quot;text-wrap: nowrap; font-size: 27px;&quot;&gt;ame String&lt;/span&gt;" style="text;strokeColor=none;fillColor=none;align=left;verticalAlign=top;spacingLeft=4;spacingRight=4;overflow=hidden;rotatable=0;points=[[0,0.5],[1,0.5]];portConstraint=eastwest;whiteSpace=wrap;html=1;fontFamily=Helvetica;fontSize=27;" parent="rCQZ0M5XMtd213yGawNZ-132" vertex="1">
          <mxGeometry y="112.741197694692" width="394.38" height="57.459022896537846" as="geometry" />
        </mxCell>
        <mxCell id="rCQZ0M5XMtd213yGawNZ-136" value="&lt;div style=&quot;font-size: 27px;&quot;&gt;-total tuple&amp;lt;Integer, Integer&amp;gt;&lt;span style=&quot;text-wrap: nowrap; font-size: 27px;&quot;&gt;&lt;br style=&quot;font-size: 27px;&quot;&gt;&lt;/span&gt;&lt;/div&gt;" style="text;strokeColor=none;fillColor=none;align=left;verticalAlign=top;spacingLeft=4;spacingRight=4;overflow=hidden;rotatable=0;points=[[0,0.5],[1,0.5]];portConstraint=eastwest;whiteSpace=wrap;html=1;fontFamily=Helvetica;fontSize=27;" parent="rCQZ0M5XMtd213yGawNZ-132" vertex="1">
          <mxGeometry y="170.20022059122985" width="394.38" height="63.98260482085347" as="geometry" />
        </mxCell>
        <mxCell id="rCQZ0M5XMtd213yGawNZ-137" value="&lt;span style=&quot;text-wrap: nowrap; font-size: 27px;&quot;&gt;-manuFactor String&lt;/span&gt;" style="text;strokeColor=none;fillColor=none;align=left;verticalAlign=top;spacingLeft=4;spacingRight=4;overflow=hidden;rotatable=0;points=[[0,0.5],[1,0.5]];portConstraint=eastwest;whiteSpace=wrap;html=1;fontFamily=Helvetica;fontSize=27;" parent="rCQZ0M5XMtd213yGawNZ-132" vertex="1">
          <mxGeometry y="234.18282541208333" width="394.38" height="56.56632221215782" as="geometry" />
        </mxCell>
        <mxCell id="rCQZ0M5XMtd213yGawNZ-138" value="&lt;span style=&quot;text-wrap: nowrap; font-size: 27px;&quot;&gt;-catalogNumPtoduct int&lt;/span&gt;" style="text;strokeColor=none;fillColor=none;align=left;verticalAlign=top;spacingLeft=4;spacingRight=4;overflow=hidden;rotatable=0;points=[[0,0.5],[1,0.5]];portConstraint=eastwest;whiteSpace=wrap;html=1;fontFamily=Helvetica;fontSize=27;" parent="rCQZ0M5XMtd213yGawNZ-132" vertex="1">
          <mxGeometry y="290.7491476242412" width="394.38" height="63.08990413647343" as="geometry" />
        </mxCell>
        <mxCell id="rCQZ0M5XMtd213yGawNZ-139" value="&lt;span style=&quot;text-wrap: nowrap; font-size: 27px;&quot;&gt;-marketPriceConst double&amp;nbsp;&lt;/span&gt;" style="text;strokeColor=none;fillColor=none;align=left;verticalAlign=top;spacingLeft=4;spacingRight=4;overflow=hidden;rotatable=0;points=[[0,0.5],[1,0.5]];portConstraint=eastwest;whiteSpace=wrap;html=1;fontFamily=Helvetica;fontSize=27;" parent="rCQZ0M5XMtd213yGawNZ-132" vertex="1">
          <mxGeometry y="353.8390517607146" width="394.38" height="44.97691732317363" as="geometry" />
        </mxCell>
        <mxCell id="rCQZ0M5XMtd213yGawNZ-140" value="&lt;span style=&quot;text-wrap: nowrap; font-size: 27px;&quot;&gt;-manuPriceConst double&amp;nbsp;&lt;/span&gt;" style="text;strokeColor=none;fillColor=none;align=left;verticalAlign=top;spacingLeft=4;spacingRight=4;overflow=hidden;rotatable=0;points=[[0,0.5],[1,0.5]];portConstraint=eastwest;whiteSpace=wrap;html=1;fontFamily=Helvetica;fontSize=27;" parent="rCQZ0M5XMtd213yGawNZ-132" vertex="1">
          <mxGeometry y="398.8159690838882" width="394.38" height="58.540564110305965" as="geometry" />
        </mxCell>
        <mxCell id="rCQZ0M5XMtd213yGawNZ-141" value="&lt;span style=&quot;text-wrap: nowrap; font-size: 27px;&quot;&gt;-manuPriceCurr double&amp;nbsp;&lt;/span&gt;" style="text;strokeColor=none;fillColor=none;align=left;verticalAlign=top;spacingLeft=4;spacingRight=4;overflow=hidden;rotatable=0;points=[[0,0.5],[1,0.5]];portConstraint=eastwest;whiteSpace=wrap;html=1;fontFamily=Helvetica;fontSize=27;" parent="rCQZ0M5XMtd213yGawNZ-132" vertex="1">
          <mxGeometry y="457.3565331941942" width="394.38" height="65.08131335547505" as="geometry" />
        </mxCell>
        <mxCell id="rCQZ0M5XMtd213yGawNZ-142" value="&lt;span style=&quot;text-wrap: nowrap; font-size: 27px;&quot;&gt;-marketPriceCurr double&amp;nbsp;&lt;/span&gt;" style="text;strokeColor=none;fillColor=none;align=left;verticalAlign=top;spacingLeft=4;spacingRight=4;overflow=hidden;rotatable=0;points=[[0,0.5],[1,0.5]];portConstraint=eastwest;whiteSpace=wrap;html=1;fontFamily=Helvetica;fontSize=27;" parent="rCQZ0M5XMtd213yGawNZ-132" vertex="1">
          <mxGeometry y="522.4378465496692" width="394.38" height="57.56" as="geometry" />
        </mxCell>
        <mxCell id="rCQZ0M5XMtd213yGawNZ-144" value="&lt;span style=&quot;text-wrap: nowrap; font-size: 27px;&quot;&gt;-&lt;/span&gt;&lt;span style=&quot;font-size: 27px;&quot;&gt;discount&amp;nbsp;&lt;/span&gt;&lt;span style=&quot;text-wrap: nowrap; font-size: 27px;&quot;&gt;double&lt;/span&gt;" style="text;strokeColor=none;fillColor=none;align=left;verticalAlign=top;spacingLeft=4;spacingRight=4;overflow=hidden;rotatable=0;points=[[0,0.5],[1,0.5]];portConstraint=eastwest;whiteSpace=wrap;html=1;fontFamily=Helvetica;fontSize=27;" parent="rCQZ0M5XMtd213yGawNZ-132" vertex="1">
          <mxGeometry y="579.9978465496692" width="394.38" height="44.97691732317363" as="geometry" />
        </mxCell>
        <mxCell id="rCQZ0M5XMtd213yGawNZ-145" value="&lt;span style=&quot;text-wrap: nowrap; font-size: 27px;&quot;&gt;-&lt;/span&gt;&lt;span style=&quot;font-size: 27px;&quot;&gt;minimalAmount&lt;/span&gt;&lt;span style=&quot;font-size: 27px;&quot;&gt;&amp;nbsp;&lt;span style=&quot;text-wrap: nowrap; font-size: 27px;&quot;&gt;int&lt;/span&gt;&lt;/span&gt;" style="text;strokeColor=none;fillColor=none;align=left;verticalAlign=top;spacingLeft=4;spacingRight=4;overflow=hidden;rotatable=0;points=[[0,0.5],[1,0.5]];portConstraint=eastwest;whiteSpace=wrap;html=1;fontFamily=Helvetica;fontSize=27;" parent="rCQZ0M5XMtd213yGawNZ-132" vertex="1">
          <mxGeometry y="624.9747638728429" width="394.38" height="57.524473307291665" as="geometry" />
        </mxCell>
        <mxCell id="rCQZ0M5XMtd213yGawNZ-313" style="edgeStyle=none;rounded=0;orthogonalLoop=1;jettySize=auto;html=1;entryX=0.445;entryY=-0.007;entryDx=0;entryDy=0;entryPerimeter=0;fontSize=27;exitX=0.449;exitY=1.001;exitDx=0;exitDy=0;exitPerimeter=0;fontFamily=Helvetica;" parent="rCQZ0M5XMtd213yGawNZ-204" source="rCQZ0M5XMtd213yGawNZ-110" target="rCQZ0M5XMtd213yGawNZ-132" edge="1">
          <mxGeometry relative="1" as="geometry" />
        </mxCell>
        <mxCell id="rCQZ0M5XMtd213yGawNZ-462" value="&lt;font style=&quot;font-size: 27px;&quot;&gt;contains&lt;/font&gt;" style="edgeLabel;html=1;align=center;verticalAlign=middle;resizable=0;points=[];fontSize=27;fontFamily=Helvetica;" parent="rCQZ0M5XMtd213yGawNZ-313" vertex="1" connectable="0">
          <mxGeometry x="0.0726" relative="1" as="geometry">
            <mxPoint x="17" y="22" as="offset" />
          </mxGeometry>
        </mxCell>
        <mxCell id="rCQZ0M5XMtd213yGawNZ-436" value="&lt;font style=&quot;font-size: 27px;&quot;&gt;1&lt;/font&gt;" style="text;html=1;align=center;verticalAlign=middle;resizable=0;points=[];autosize=1;strokeColor=none;fillColor=none;fontSize=27;fontFamily=Helvetica;" parent="rCQZ0M5XMtd213yGawNZ-204" vertex="1">
          <mxGeometry x="1185" y="46.01999999999998" width="40" height="50" as="geometry" />
        </mxCell>
        <mxCell id="rCQZ0M5XMtd213yGawNZ-437" value="&lt;font style=&quot;font-size: 27px;&quot;&gt;1&lt;/font&gt;" style="text;html=1;align=center;verticalAlign=middle;resizable=0;points=[];autosize=1;strokeColor=none;fillColor=none;fontSize=27;fontFamily=Helvetica;" parent="rCQZ0M5XMtd213yGawNZ-204" vertex="1">
          <mxGeometry x="1355" y="41" width="40" height="50" as="geometry" />
        </mxCell>
        <mxCell id="rCQZ0M5XMtd213yGawNZ-438" value="&lt;font style=&quot;font-size: 27px;&quot;&gt;1&lt;/font&gt;" style="text;html=1;align=center;verticalAlign=middle;resizable=0;points=[];autosize=1;strokeColor=none;fillColor=none;fontSize=27;fontFamily=Helvetica;" parent="rCQZ0M5XMtd213yGawNZ-204" vertex="1">
          <mxGeometry x="1605" y="46.01999999999998" width="40" height="50" as="geometry" />
        </mxCell>
        <mxCell id="rCQZ0M5XMtd213yGawNZ-439" value="&lt;font style=&quot;font-size: 27px;&quot;&gt;1&lt;/font&gt;" style="text;html=1;align=center;verticalAlign=middle;resizable=0;points=[];autosize=1;strokeColor=none;fillColor=none;fontSize=27;fontFamily=Helvetica;" parent="rCQZ0M5XMtd213yGawNZ-204" vertex="1">
          <mxGeometry x="1815" y="41" width="40" height="50" as="geometry" />
        </mxCell>
        <mxCell id="rCQZ0M5XMtd213yGawNZ-440" value="&lt;font style=&quot;font-size: 27px;&quot;&gt;1&lt;/font&gt;" style="text;html=1;align=center;verticalAlign=middle;resizable=0;points=[];autosize=1;strokeColor=none;fillColor=none;fontSize=27;fontFamily=Helvetica;" parent="rCQZ0M5XMtd213yGawNZ-204" vertex="1">
          <mxGeometry x="2215" y="155" width="40" height="50" as="geometry" />
        </mxCell>
        <mxCell id="rCQZ0M5XMtd213yGawNZ-445" value="&lt;font style=&quot;font-size: 27px;&quot;&gt;1&lt;/font&gt;" style="text;html=1;align=center;verticalAlign=middle;resizable=0;points=[];autosize=1;strokeColor=none;fillColor=none;fontSize=27;fontFamily=Helvetica;" parent="rCQZ0M5XMtd213yGawNZ-204" vertex="1">
          <mxGeometry x="2185" y="475" width="40" height="50" as="geometry" />
        </mxCell>
        <mxCell id="rCQZ0M5XMtd213yGawNZ-446" value="&lt;font style=&quot;font-size: 27px;&quot;&gt;1&lt;/font&gt;" style="text;html=1;align=center;verticalAlign=middle;resizable=0;points=[];autosize=1;strokeColor=none;fillColor=none;fontSize=27;fontFamily=Helvetica;" parent="rCQZ0M5XMtd213yGawNZ-204" vertex="1">
          <mxGeometry x="2685" y="704.14" width="40" height="50" as="geometry" />
        </mxCell>
        <mxCell id="rCQZ0M5XMtd213yGawNZ-448" value="&lt;font style=&quot;font-size: 27px;&quot;&gt;1&lt;/font&gt;" style="text;html=1;align=center;verticalAlign=middle;resizable=0;points=[];autosize=1;strokeColor=none;fillColor=none;fontSize=27;fontFamily=Helvetica;" parent="rCQZ0M5XMtd213yGawNZ-204" vertex="1">
          <mxGeometry x="565" y="485" width="40" height="50" as="geometry" />
        </mxCell>
        <mxCell id="rCQZ0M5XMtd213yGawNZ-449" value="&lt;font style=&quot;font-size: 27px;&quot;&gt;1&lt;/font&gt;" style="text;html=1;align=center;verticalAlign=middle;resizable=0;points=[];autosize=1;strokeColor=none;fillColor=none;fontSize=27;fontFamily=Helvetica;" parent="rCQZ0M5XMtd213yGawNZ-204" vertex="1">
          <mxGeometry x="335" y="805" width="40" height="50" as="geometry" />
        </mxCell>
        <mxCell id="rCQZ0M5XMtd213yGawNZ-450" value="&lt;font style=&quot;font-size: 27px;&quot;&gt;1&lt;/font&gt;" style="text;html=1;align=center;verticalAlign=middle;resizable=0;points=[];autosize=1;strokeColor=none;fillColor=none;fontSize=27;fontFamily=Helvetica;" parent="rCQZ0M5XMtd213yGawNZ-204" vertex="1">
          <mxGeometry x="405" y="1699.25" width="40" height="50" as="geometry" />
        </mxCell>
        <mxCell id="rCQZ0M5XMtd213yGawNZ-451" value="&lt;font style=&quot;font-size: 27px;&quot;&gt;1&lt;/font&gt;" style="text;html=1;align=center;verticalAlign=middle;resizable=0;points=[];autosize=1;strokeColor=none;fillColor=none;fontSize=27;fontFamily=Helvetica;" parent="rCQZ0M5XMtd213yGawNZ-204" vertex="1">
          <mxGeometry x="410" y="1360" width="40" height="50" as="geometry" />
        </mxCell>
        <mxCell id="rCQZ0M5XMtd213yGawNZ-452" value="&lt;font style=&quot;font-size: 27px;&quot;&gt;1&lt;/font&gt;" style="text;html=1;align=center;verticalAlign=middle;resizable=0;points=[];autosize=1;strokeColor=none;fillColor=none;fontSize=27;fontFamily=Helvetica;" parent="rCQZ0M5XMtd213yGawNZ-204" vertex="1">
          <mxGeometry x="960" y="1870" width="40" height="50" as="geometry" />
        </mxCell>
        <mxCell id="rCQZ0M5XMtd213yGawNZ-454" value="&lt;font style=&quot;font-size: 27px;&quot;&gt;1&lt;/font&gt;" style="text;html=1;align=center;verticalAlign=middle;resizable=0;points=[];autosize=1;strokeColor=none;fillColor=none;fontSize=27;fontFamily=Helvetica;" parent="rCQZ0M5XMtd213yGawNZ-204" vertex="1">
          <mxGeometry x="2105" y="1095" width="40" height="50" as="geometry" />
        </mxCell>
        <mxCell id="rCQZ0M5XMtd213yGawNZ-455" value="&lt;font style=&quot;font-size: 27px;&quot;&gt;1&lt;/font&gt;" style="text;html=1;align=center;verticalAlign=middle;resizable=0;points=[];autosize=1;strokeColor=none;fillColor=none;fontSize=27;fontFamily=Helvetica;" parent="rCQZ0M5XMtd213yGawNZ-204" vertex="1">
          <mxGeometry x="2465" y="969.14" width="40" height="50" as="geometry" />
        </mxCell>
        <mxCell id="rCQZ0M5XMtd213yGawNZ-458" value="&lt;font style=&quot;font-size: 27px;&quot;&gt;*&lt;/font&gt;" style="text;html=1;align=center;verticalAlign=middle;resizable=0;points=[];autosize=1;strokeColor=none;fillColor=none;fontSize=27;fontFamily=Helvetica;" parent="rCQZ0M5XMtd213yGawNZ-204" vertex="1">
          <mxGeometry x="1527.02" y="2045" width="30" height="50" as="geometry" />
        </mxCell>
        <mxCell id="rCQZ0M5XMtd213yGawNZ-459" value="&lt;font style=&quot;font-size: 27px;&quot;&gt;1&lt;/font&gt;" style="text;html=1;align=center;verticalAlign=middle;resizable=0;points=[];autosize=1;strokeColor=none;fillColor=none;fontSize=27;fontFamily=Helvetica;" parent="rCQZ0M5XMtd213yGawNZ-204" vertex="1">
          <mxGeometry x="1330" y="1855" width="40" height="50" as="geometry" />
        </mxCell>
        <mxCell id="rCQZ0M5XMtd213yGawNZ-410" value="&amp;lt;&amp;lt;Enum&amp;gt;&amp;gt;&lt;div style=&quot;font-size: 27px;&quot;&gt;status&lt;/div&gt;" style="swimlane;fontStyle=1;align=center;verticalAlign=top;childLayout=stackLayout;horizontal=1;startSize=70;horizontalStack=0;resizeParent=1;resizeParentMax=0;resizeLast=0;collapsible=1;marginBottom=0;whiteSpace=wrap;html=1;fontSize=27;fontFamily=Helvetica;" parent="rCQZ0M5XMtd213yGawNZ-204" vertex="1">
          <mxGeometry x="2430" y="2270" width="380" height="170" as="geometry" />
        </mxCell>
        <mxCell id="rCQZ0M5XMtd213yGawNZ-411" value="Defective&lt;div style=&quot;font-size: 27px;&quot;&gt;Epired&lt;/div&gt;&lt;div style=&quot;font-size: 27px;&quot;&gt;ForSale&lt;/div&gt;&lt;div style=&quot;font-size: 27px;&quot;&gt;&lt;br style=&quot;font-size: 27px;&quot;&gt;&lt;/div&gt;" style="text;strokeColor=none;fillColor=none;align=left;verticalAlign=top;spacingLeft=4;spacingRight=4;overflow=hidden;rotatable=0;points=[[0,0.5],[1,0.5]];portConstraint=eastwest;whiteSpace=wrap;html=1;fontSize=27;fontFamily=Helvetica;" parent="rCQZ0M5XMtd213yGawNZ-410" vertex="1">
          <mxGeometry y="70" width="380" height="100" as="geometry" />
        </mxCell>
        <mxCell id="rCQZ0M5XMtd213yGawNZ-460" value="&lt;font style=&quot;font-size: 27px;&quot;&gt;*&lt;/font&gt;" style="text;html=1;align=center;verticalAlign=middle;resizable=0;points=[];autosize=1;strokeColor=none;fillColor=none;fontSize=27;fontFamily=Helvetica;" parent="rCQZ0M5XMtd213yGawNZ-204" vertex="1">
          <mxGeometry x="2320" y="1920" width="30" height="50" as="geometry" />
        </mxCell>
        <mxCell id="rCQZ0M5XMtd213yGawNZ-461" value="&lt;font style=&quot;font-size: 27px;&quot;&gt;1&lt;/font&gt;" style="text;html=1;align=center;verticalAlign=middle;resizable=0;points=[];autosize=1;strokeColor=none;fillColor=none;fontSize=27;fontFamily=Helvetica;" parent="rCQZ0M5XMtd213yGawNZ-204" vertex="1">
          <mxGeometry x="2250" y="1713.4" width="40" height="50" as="geometry" />
        </mxCell>
        <mxCell id="rCQZ0M5XMtd213yGawNZ-467" style="edgeStyle=none;rounded=0;orthogonalLoop=1;jettySize=auto;html=1;entryX=1.01;entryY=0.022;entryDx=0;entryDy=0;entryPerimeter=0;fontSize=27;fontFamily=Helvetica;exitX=0;exitY=0.5;exitDx=0;exitDy=0;" parent="rCQZ0M5XMtd213yGawNZ-204" source="rCQZ0M5XMtd213yGawNZ-154" edge="1">
          <mxGeometry relative="1" as="geometry">
            <mxPoint x="2039" y="1830" as="sourcePoint" />
            <mxPoint x="1743.154217578407" y="2159.971494035326" as="targetPoint" />
          </mxGeometry>
        </mxCell>
        <mxCell id="rCQZ0M5XMtd213yGawNZ-471" value="&lt;span style=&quot;color: rgb(51, 51, 51); text-align: start; text-wrap: wrap; font-size: 27px;&quot;&gt;&lt;font style=&quot;font-size: 27px;&quot;&gt;Characterized by&lt;/font&gt;&lt;/span&gt;" style="edgeLabel;html=1;align=center;verticalAlign=middle;resizable=0;points=[];fontSize=27;fontFamily=Helvetica;" parent="rCQZ0M5XMtd213yGawNZ-467" vertex="1" connectable="0">
          <mxGeometry x="0.1049" relative="1" as="geometry">
            <mxPoint as="offset" />
          </mxGeometry>
        </mxCell>
        <mxCell id="rCQZ0M5XMtd213yGawNZ-469" value="&lt;font style=&quot;font-size: 27px;&quot;&gt;1&lt;/font&gt;" style="text;html=1;align=center;verticalAlign=middle;resizable=0;points=[];autosize=1;strokeColor=none;fillColor=none;fontSize=27;fontFamily=Helvetica;" parent="rCQZ0M5XMtd213yGawNZ-204" vertex="1">
          <mxGeometry x="1748.38" y="2156.11" width="40" height="50" as="geometry" />
        </mxCell>
        <mxCell id="rCQZ0M5XMtd213yGawNZ-478" value="&lt;font style=&quot;font-size: 27px;&quot;&gt;1&lt;/font&gt;" style="text;html=1;align=center;verticalAlign=middle;resizable=0;points=[];autosize=1;strokeColor=none;fillColor=none;fontSize=27;fontFamily=Helvetica;" parent="rCQZ0M5XMtd213yGawNZ-204" vertex="1">
          <mxGeometry x="2504.1800000000003" y="1480" width="40" height="50" as="geometry" />
        </mxCell>
        <mxCell id="rCQZ0M5XMtd213yGawNZ-480" value="&lt;font style=&quot;font-size: 27px;&quot;&gt;*&lt;/font&gt;" style="text;html=1;align=center;verticalAlign=middle;resizable=0;points=[];autosize=1;strokeColor=none;fillColor=none;fontSize=27;fontFamily=Helvetica;" parent="rCQZ0M5XMtd213yGawNZ-204" vertex="1">
          <mxGeometry x="2049" y="2090" width="30" height="50" as="geometry" />
        </mxCell>
        <mxCell id="rCQZ0M5XMtd213yGawNZ-484" value="&lt;font style=&quot;font-size: 27px;&quot;&gt;1..*&lt;/font&gt;" style="text;html=1;align=center;verticalAlign=middle;resizable=0;points=[];autosize=1;strokeColor=none;fillColor=none;fontSize=27;fontFamily=Helvetica;" parent="rCQZ0M5XMtd213yGawNZ-204" vertex="1">
          <mxGeometry x="1738.3799999999999" y="2495" width="60" height="50" as="geometry" />
        </mxCell>
        <mxCell id="rCQZ0M5XMtd213yGawNZ-483" value="&lt;font style=&quot;font-size: 27px;&quot;&gt;0..1&lt;/font&gt;" style="text;html=1;align=center;verticalAlign=middle;resizable=0;points=[];autosize=1;strokeColor=none;fillColor=none;fontSize=27;fontFamily=Helvetica;" parent="rCQZ0M5XMtd213yGawNZ-204" vertex="1">
          <mxGeometry x="1990" y="2485" width="70" height="50" as="geometry" />
        </mxCell>
        <mxCell id="rCQZ0M5XMtd213yGawNZ-481" style="edgeStyle=none;rounded=0;orthogonalLoop=1;jettySize=auto;html=1;fontSize=27;exitX=1.011;exitY=1.175;exitDx=0;exitDy=0;exitPerimeter=0;entryX=-0.004;entryY=0.853;entryDx=0;entryDy=0;entryPerimeter=0;fontFamily=Helvetica;" parent="rCQZ0M5XMtd213yGawNZ-204" source="rCQZ0M5XMtd213yGawNZ-139" target="rCQZ0M5XMtd213yGawNZ-238" edge="1">
          <mxGeometry relative="1" as="geometry">
            <mxPoint x="2279" y="2380" as="sourcePoint" />
            <mxPoint x="2043" y="2387" as="targetPoint" />
          </mxGeometry>
        </mxCell>
        <mxCell id="rCQZ0M5XMtd213yGawNZ-482" value="&lt;font style=&quot;font-size: 27px;&quot;&gt;has a&lt;/font&gt;" style="edgeLabel;html=1;align=center;verticalAlign=middle;resizable=0;points=[];fontSize=27;fontFamily=Helvetica;" parent="rCQZ0M5XMtd213yGawNZ-481" vertex="1" connectable="0">
          <mxGeometry x="0.0757" y="3" relative="1" as="geometry">
            <mxPoint as="offset" />
          </mxGeometry>
        </mxCell>
        <mxCell id="rCQZ0M5XMtd213yGawNZ-492" value="&lt;font style=&quot;font-size: 27px;&quot;&gt;1&lt;/font&gt;" style="text;html=1;align=center;verticalAlign=middle;resizable=0;points=[];autosize=1;strokeColor=none;fillColor=none;fontSize=27;fontFamily=Helvetica;" parent="rCQZ0M5XMtd213yGawNZ-204" vertex="1">
          <mxGeometry x="1055" y="1855" width="40" height="50" as="geometry" />
        </mxCell>
        <mxCell id="rCQZ0M5XMtd213yGawNZ-497" value="&lt;font style=&quot;font-size: 27px;&quot;&gt;1&lt;/font&gt;" style="text;html=1;align=center;verticalAlign=middle;resizable=0;points=[];autosize=1;strokeColor=none;fillColor=none;fontSize=27;fontFamily=Helvetica;" parent="rCQZ0M5XMtd213yGawNZ-204" vertex="1">
          <mxGeometry x="1164" y="1849.23" width="40" height="50" as="geometry" />
        </mxCell>
        <mxCell id="rCQZ0M5XMtd213yGawNZ-213" value="" style="group;fontSize=27;fontFamily=Helvetica;" parent="1" vertex="1" connectable="0">
          <mxGeometry x="-440" y="2380" width="2870" height="1057.09" as="geometry" />
        </mxCell>
        <mxCell id="rCQZ0M5XMtd213yGawNZ-164" value="&lt;p style=&quot;margin: 4px 0px 0px; text-align: center; font-size: 27px;&quot;&gt;&lt;font style=&quot;font-size: 27px;&quot;&gt;&lt;i style=&quot;font-size: 27px;&quot;&gt;&amp;lt;&amp;lt;Interface&amp;gt;&amp;gt;&lt;/i&gt;&lt;br style=&quot;font-size: 27px;&quot;&gt;&lt;b style=&quot;font-size: 27px;&quot;&gt;IDataAccessObj&lt;/b&gt;&lt;/font&gt;&lt;/p&gt;&lt;hr style=&quot;border-style: solid; font-size: 27px;&quot;&gt;&lt;p style=&quot;margin: 0px 0px 0px 4px; font-size: 27px;&quot;&gt;&lt;/p&gt;&lt;h1 style=&quot;margin: 0px 0px 0px 4px; font-size: 27px;&quot;&gt;&lt;span style=&quot;background-color: initial; font-weight: normal; font-size: 27px;&quot;&gt;&lt;font style=&quot;font-size: 27px;&quot;&gt;+search(int UniqeToSearch): Json&lt;/font&gt;&lt;br style=&quot;font-size: 27px;&quot;&gt;&lt;font style=&quot;font-size: 27px;&quot;&gt;+insert(&lt;/font&gt;&lt;/span&gt;&lt;font style=&quot;font-size: 27px;&quot;&gt;Json recordToAdd) : void&lt;/font&gt;&lt;/h1&gt;&lt;div style=&quot;font-size: 27px;&quot;&gt;&lt;font style=&quot;font-size: 27px;&quot;&gt;+ remove(int UniqueToremove) : void&lt;/font&gt;&lt;/div&gt;" style="verticalAlign=top;align=left;overflow=fill;html=1;whiteSpace=wrap;hachureGap=4;fontFamily=Helvetica;labelBackgroundColor=none;fontSize=27;" parent="rCQZ0M5XMtd213yGawNZ-213" vertex="1">
          <mxGeometry x="1196.54" y="20.584244618781693" width="653.05" height="205.84244618781693" as="geometry" />
        </mxCell>
        <mxCell id="rCQZ0M5XMtd213yGawNZ-165" value="&lt;span style=&quot;font-weight: 400; text-align: left; font-size: 27px;&quot;&gt;ProductAccessObj&lt;/span&gt;" style="swimlane;fontStyle=1;align=center;verticalAlign=top;childLayout=stackLayout;horizontal=1;startSize=40;horizontalStack=0;resizeParent=1;resizeParentMax=0;resizeLast=0;collapsible=1;marginBottom=0;whiteSpace=wrap;html=1;fontSize=27;fontFamily=Helvetica;" parent="rCQZ0M5XMtd213yGawNZ-213" vertex="1">
          <mxGeometry x="-335.0761421319797" y="274.8887044862959" width="1446.16" height="492.8533816131972" as="geometry" />
        </mxCell>
        <mxCell id="rCQZ0M5XMtd213yGawNZ-168" value="&lt;div style=&quot;font-size: 27px;&quot;&gt;&lt;h1 style=&quot;margin: 0px 0px 0px 4px; font-size: 27px;&quot;&gt;&lt;span style=&quot;background-color: initial; font-weight: normal; font-size: 27px;&quot;&gt;&lt;font style=&quot;font-size: 27px;&quot;&gt;+search(int UniqeToSearch): Json&lt;/font&gt;&lt;/span&gt;&lt;/h1&gt;&lt;div style=&quot;font-size: 27px;&quot;&gt;&lt;span style=&quot;background-color: initial; font-size: 27px;&quot;&gt;+ addProdDB(Json recordToAdd): void&lt;/span&gt;&lt;br style=&quot;font-size: 27px;&quot;&gt;&lt;/div&gt;&lt;div style=&quot;font-size: 27px;&quot;&gt;&lt;span style=&quot;background-color: initial; font-size: 27px;&quot;&gt;+ remove(int UniqueToremove) : void&lt;/span&gt;&lt;/div&gt;&lt;div style=&quot;font-size: 27px;&quot;&gt;&lt;span style=&quot;background-color: initial; font-size: 27px;&quot;&gt;&lt;br style=&quot;font-size: 27px;&quot;&gt;&lt;/span&gt;&lt;/div&gt;&lt;div style=&quot;font-size: 27px;&quot;&gt;&lt;span style=&quot;background-color: initial; font-size: 27px;&quot;&gt;+removeItemDB(int catNum, String fromWhere) : void&lt;/span&gt;&lt;br style=&quot;font-size: 27px;&quot;&gt;&lt;/div&gt;&lt;div style=&quot;font-size: 27px;&quot;&gt;&lt;div style=&quot;font-size: 27px;&quot;&gt;&lt;span style=&quot;background-color: initial; font-size: 27px;&quot;&gt;+findAllProductsByMainCatDB(String mainCat,&amp;nbsp;&lt;/span&gt;&lt;span style=&quot;background-color: initial; font-size: 27px;&quot;&gt;ArrayList&amp;lt;Integer&amp;gt; alreadyHave&lt;/span&gt;&lt;span style=&quot;background-color: initial; font-size: 27px;&quot;&gt;) : ArrayList&amp;lt;Json&amp;gt;&lt;/span&gt;&lt;br style=&quot;font-size: 27px;&quot;&gt;&lt;/div&gt;&lt;/div&gt;&lt;div style=&quot;font-size: 27px;&quot;&gt;&lt;div style=&quot;font-size: 27px;&quot;&gt;&lt;div style=&quot;font-size: 27px;&quot;&gt;&lt;span style=&quot;background-color: initial; font-size: 27px;&quot;&gt;+findAllProductsBySubCatDB(&lt;/span&gt;&lt;span style=&quot;background-color: initial; font-size: 27px;&quot;&gt;String mainCat,&amp;nbsp;&lt;/span&gt;&lt;span style=&quot;background-color: initial; font-size: 27px;&quot;&gt;String subCat,&amp;nbsp;&lt;/span&gt;&lt;span style=&quot;background-color: initial; font-size: 27px;&quot;&gt;ArrayList&amp;lt;Integer&amp;gt; alreadyHave&lt;/span&gt;&lt;span style=&quot;background-color: initial; font-size: 27px;&quot;&gt;) : ArrayList&amp;lt;Json&amp;gt;&lt;/span&gt;&lt;/div&gt;&lt;div style=&quot;font-size: 27px;&quot;&gt;&lt;span style=&quot;background-color: initial; font-size: 27px;&quot;&gt;+findAllProductsBySizeDB(&lt;/span&gt;&lt;span style=&quot;background-color: initial; font-size: 27px;&quot;&gt;String mainCat,&amp;nbsp;&lt;/span&gt;&lt;span style=&quot;background-color: initial; font-size: 27px;&quot;&gt;String subCat,&amp;nbsp;&lt;/span&gt;&lt;span style=&quot;background-color: initial; font-size: 27px;&quot;&gt;String subCat,&amp;nbsp;&lt;/span&gt;&lt;span style=&quot;background-color: initial; font-size: 27px;&quot;&gt;ArrayList&amp;lt;Integer&amp;gt; alreadyHave&lt;/span&gt;&lt;span style=&quot;background-color: initial; font-size: 27px;&quot;&gt;) : ArrayList&amp;lt;Json&amp;gt;&lt;/span&gt;&lt;/div&gt;&lt;/div&gt;&lt;/div&gt;&lt;div style=&quot;font-size: 27px;&quot;&gt;&lt;span style=&quot;background-color: initial; font-size: 27px;&quot;&gt;&lt;br style=&quot;font-size: 27px;&quot;&gt;&lt;/span&gt;&lt;/div&gt;&lt;div style=&quot;font-size: 27px;&quot;&gt;&lt;span style=&quot;background-color: initial; font-size: 27px;&quot;&gt;+updateSaleDB(ArrayList&amp;lt;Integer&amp;gt; catalogNumToUpdate, int idOfNewSale, double ratio): void&lt;/span&gt;&lt;br style=&quot;font-size: 27px;&quot;&gt;&lt;/div&gt;&lt;/div&gt;&lt;div style=&quot;font-size: 27px;&quot;&gt;&lt;span style=&quot;background-color: initial; font-size: 27px;&quot;&gt;+updateDisDB(&lt;/span&gt;&lt;span style=&quot;background-color: initial; font-size: 27px;&quot;&gt;ArrayList&amp;lt;Integer&amp;gt; catalogNumbersToUpdate, double ratio): void&lt;/span&gt;&lt;br style=&quot;font-size: 27px;&quot;&gt;&lt;/div&gt;&lt;div style=&quot;font-size: 27px;&quot;&gt;+updatePlacedItemDB(int catNum, String WareOrStore) : void&lt;br style=&quot;font-size: 27px;&quot;&gt;&lt;/div&gt;&lt;div style=&quot;font-size: 27px;&quot;&gt;&lt;br&gt;&lt;/div&gt;&lt;div style=&quot;font-size: 27px;&quot;&gt;&lt;br&gt;&lt;/div&gt;&lt;div style=&quot;font-size: 27px;&quot;&gt;&lt;div style=&quot;font-size: 27px;&quot;&gt;&lt;br style=&quot;font-size: 27px;&quot;&gt;&lt;/div&gt;&lt;/div&gt;" style="text;strokeColor=none;fillColor=none;align=left;verticalAlign=top;spacingLeft=4;spacingRight=4;overflow=hidden;rotatable=0;points=[[0,0.5],[1,0.5]];portConstraint=eastwest;whiteSpace=wrap;html=1;fontSize=27;fontFamily=Helvetica;" parent="rCQZ0M5XMtd213yGawNZ-165" vertex="1">
          <mxGeometry y="40" width="1446.16" height="452.8533816131972" as="geometry" />
        </mxCell>
        <mxCell id="rCQZ0M5XMtd213yGawNZ-169" value="&lt;span style=&quot;font-weight: 400; text-align: left; font-size: 27px;&quot;&gt;&amp;nbsp;&lt;/span&gt;&lt;span style=&quot;font-weight: 400; text-align: left; font-size: 27px;&quot;&gt;ItemAccessObj&lt;/span&gt;" style="swimlane;fontStyle=1;align=center;verticalAlign=top;childLayout=stackLayout;horizontal=1;startSize=40;horizontalStack=0;resizeParent=1;resizeParentMax=0;resizeLast=0;collapsible=1;marginBottom=0;whiteSpace=wrap;html=1;hachureGap=4;fontFamily=Helvetica;labelBackgroundColor=none;fontSize=27;" parent="rCQZ0M5XMtd213yGawNZ-213" vertex="1">
          <mxGeometry x="2239.996243654822" y="274.8906661294257" width="611.88" height="523.7297485413698" as="geometry" />
        </mxCell>
        <mxCell id="rCQZ0M5XMtd213yGawNZ-172" value="&lt;div style=&quot;font-size: 27px;&quot;&gt;&lt;h1 style=&quot;margin: 0px 0px 0px 4px; font-size: 27px;&quot;&gt;&lt;span style=&quot;background-color: initial; font-weight: normal; font-size: 27px;&quot;&gt;&lt;font style=&quot;font-size: 27px;&quot;&gt;+search(int UniqeToSearch): Json&lt;/font&gt;&lt;/span&gt;&lt;/h1&gt;&lt;h1 style=&quot;margin: 0px 0px 0px 4px; font-size: 27px;&quot;&gt;&lt;span style=&quot;background-color: initial; font-weight: normal; font-size: 27px;&quot;&gt;&lt;font style=&quot;font-size: 27px;&quot;&gt;+insert(&lt;/font&gt;&lt;/span&gt;&lt;font style=&quot;font-size: 27px;&quot;&gt;Json recordToAdd) : void&lt;/font&gt;&lt;/h1&gt;&lt;div style=&quot;font-size: 27px;&quot;&gt;&lt;span style=&quot;font-size: 27px;&quot;&gt;+ remove(int UniqueToremove) : void&lt;/span&gt;&lt;font style=&quot;font-size: 27px;&quot;&gt;&lt;br style=&quot;font-size: 27px;&quot;&gt;&lt;/font&gt;&lt;/div&gt;&lt;div style=&quot;font-size: 27px;&quot;&gt;&lt;span style=&quot;font-size: 27px;&quot;&gt;&lt;br style=&quot;font-size: 27px;&quot;&gt;&lt;/span&gt;&lt;/div&gt;&lt;div style=&quot;font-size: 27px;&quot;&gt;&lt;span style=&quot;background-color: initial; font-size: 27px;&quot;&gt;+moveStoreWareDB(int idToMove, Tuple&amp;lt;String, Integer&amp;gt; newPlace): void&lt;/span&gt;&lt;br style=&quot;font-size: 27px;&quot;&gt;&lt;/div&gt;&lt;/div&gt;&lt;div style=&quot;font-size: 27px;&quot;&gt;&lt;span style=&quot;font-size: 27px;&quot;&gt;+moveWare&lt;/span&gt;&lt;span style=&quot;background-color: initial; font-size: 27px;&quot;&gt;Store&lt;/span&gt;&lt;span style=&quot;background-color: initial; font-size: 27px;&quot;&gt;DB(int idToMove, Tuple&amp;lt;String, Integer&amp;gt; newPlace): void&lt;/span&gt;&lt;/div&gt;&lt;div style=&quot;font-size: 27px;&quot;&gt;&lt;span style=&quot;background-color: initial; font-size: 27px;&quot;&gt;&lt;br style=&quot;font-size: 27px;&quot;&gt;&lt;/span&gt;&lt;/div&gt;&lt;div style=&quot;font-size: 27px;&quot;&gt;&lt;div style=&quot;font-size: 27px;&quot;&gt;&lt;span style=&quot;background-color: initial; font-size: 27px;&quot;&gt;+reportDamageDB(int idToReport) : void&lt;/span&gt;&lt;br style=&quot;font-size: 27px;&quot;&gt;&lt;/div&gt;&lt;div style=&quot;font-size: 27px;&quot;&gt;&lt;div style=&quot;font-size: 27px;&quot;&gt;&lt;div style=&quot;font-size: 27px;&quot;&gt;&lt;span style=&quot;background-color: initial; font-size: 27px;&quot;&gt;+reportExpDB(int idToReport) : void&lt;/span&gt;&lt;/div&gt;&lt;/div&gt;&lt;/div&gt;&lt;div style=&quot;font-size: 27px;&quot;&gt;&lt;span style=&quot;background-color: initial; font-size: 27px;&quot;&gt;&lt;br style=&quot;font-size: 27px;&quot;&gt;&lt;/span&gt;&lt;/div&gt;&lt;div style=&quot;font-size: 27px;&quot;&gt;&lt;div style=&quot;font-size: 27px;&quot;&gt;&lt;font style=&quot;font-size: 27px;&quot;&gt;+findAllDefectiveDB() : ArrayList&amp;lt;Json&amp;gt;&lt;/font&gt;&lt;/div&gt;&lt;div style=&quot;font-size: 27px;&quot;&gt;&lt;span style=&quot;background-color: initial; font-size: 27px;&quot;&gt;+findAllExpDB() : ArrayList&amp;lt;Json&amp;gt;&lt;/span&gt;&lt;/div&gt;&lt;/div&gt;&lt;/div&gt;" style="text;strokeColor=none;fillColor=none;align=left;verticalAlign=top;spacingLeft=4;spacingRight=4;overflow=hidden;rotatable=0;points=[[0,0.5],[1,0.5]];portConstraint=eastwest;whiteSpace=wrap;html=1;fontFamily=Helvetica;labelBackgroundColor=none;fontSize=27;" parent="rCQZ0M5XMtd213yGawNZ-169" vertex="1">
          <mxGeometry y="40" width="611.88" height="483.72974854136976" as="geometry" />
        </mxCell>
        <mxCell id="rCQZ0M5XMtd213yGawNZ-173" value="&lt;div style=&quot;text-align: left; font-size: 27px;&quot;&gt;&lt;span style=&quot;background-color: initial; font-weight: 400; font-size: 27px;&quot;&gt;&lt;font style=&quot;font-size: 27px;&quot;&gt;SaleItemAccessObj&lt;/font&gt;&lt;/span&gt;&lt;/div&gt;" style="swimlane;fontStyle=1;align=center;verticalAlign=top;childLayout=stackLayout;horizontal=1;startSize=34;horizontalStack=0;resizeParent=1;resizeParentMax=0;resizeLast=0;collapsible=1;marginBottom=0;whiteSpace=wrap;html=1;hachureGap=4;fontFamily=Helvetica;labelBackgroundColor=none;fontSize=27;" parent="rCQZ0M5XMtd213yGawNZ-213" vertex="1">
          <mxGeometry x="1196.5455628350207" y="336.39280783290087" width="830.4060913705584" height="153.7136331776514" as="geometry" />
        </mxCell>
        <mxCell id="rCQZ0M5XMtd213yGawNZ-175" value="&lt;h1 style=&quot;margin: 0px 0px 0px 4px; font-size: 27px;&quot;&gt;&lt;span style=&quot;background-color: initial; font-weight: normal; font-size: 27px;&quot;&gt;&lt;font style=&quot;font-size: 27px;&quot;&gt;+search(int UniqeToSearch): Json&lt;/font&gt;&lt;br style=&quot;font-size: 27px;&quot;&gt;&lt;font style=&quot;font-size: 27px;&quot;&gt;+insert(&lt;/font&gt;&lt;/span&gt;&lt;font style=&quot;font-size: 27px;&quot;&gt;Json recordToAdd) : void&lt;/font&gt;&lt;/h1&gt;&lt;h1 style=&quot;margin: 0px 0px 0px 4px; font-size: 27px;&quot;&gt;&lt;div style=&quot;font-weight: 400; font-size: 27px;&quot;&gt;&lt;font style=&quot;font-size: 27px;&quot;&gt;+ remove(int UniqueToremove) : void&lt;/font&gt;&lt;/div&gt;&lt;/h1&gt;" style="text;strokeColor=none;fillColor=none;align=left;verticalAlign=top;spacingLeft=4;spacingRight=4;overflow=hidden;rotatable=0;points=[[0,0.5],[1,0.5]];portConstraint=eastwest;whiteSpace=wrap;html=1;fontFamily=Helvetica;labelBackgroundColor=none;fontSize=27;" parent="rCQZ0M5XMtd213yGawNZ-173" vertex="1">
          <mxGeometry y="34" width="830.4060913705584" height="119.7136331776514" as="geometry" />
        </mxCell>
        <mxCell id="rCQZ0M5XMtd213yGawNZ-177" value="" style="endArrow=block;dashed=1;endFill=0;endSize=12;html=1;rounded=0;fontSize=27;fontFamily=Helvetica;" parent="rCQZ0M5XMtd213yGawNZ-213" edge="1">
          <mxGeometry width="160" relative="1" as="geometry">
            <mxPoint x="550" y="232.01531322059785" as="sourcePoint" />
            <mxPoint x="1530" y="221.723190911207" as="targetPoint" />
            <Array as="points">
              <mxPoint x="1300" y="252.59955783937951" />
              <mxPoint x="2480" y="232.01531322059785" />
              <mxPoint x="1530" y="247.01093542538027" />
            </Array>
          </mxGeometry>
        </mxCell>
        <mxCell id="rCQZ0M5XMtd213yGawNZ-473" value="&lt;font style=&quot;font-size: 27px;&quot;&gt;implement&lt;/font&gt;" style="edgeLabel;html=1;align=center;verticalAlign=middle;resizable=0;points=[];fontSize=27;fontFamily=Helvetica;" parent="rCQZ0M5XMtd213yGawNZ-177" vertex="1" connectable="0">
          <mxGeometry x="-0.8266" y="-5" relative="1" as="geometry">
            <mxPoint as="offset" />
          </mxGeometry>
        </mxCell>
        <mxCell id="rCQZ0M5XMtd213yGawNZ-474" value="&lt;span style=&quot;font-size: 27px;&quot;&gt;implement&lt;/span&gt;" style="edgeLabel;html=1;align=center;verticalAlign=middle;resizable=0;points=[];fontSize=27;fontFamily=Helvetica;" parent="rCQZ0M5XMtd213yGawNZ-177" vertex="1" connectable="0">
          <mxGeometry x="-0.2238" y="3" relative="1" as="geometry">
            <mxPoint x="-7" y="4" as="offset" />
          </mxGeometry>
        </mxCell>
        <mxCell id="rCQZ0M5XMtd213yGawNZ-475" value="&lt;span style=&quot;font-size: 27px;&quot;&gt;implement&lt;/span&gt;" style="edgeLabel;html=1;align=center;verticalAlign=middle;resizable=0;points=[];fontSize=27;fontFamily=Helvetica;" parent="rCQZ0M5XMtd213yGawNZ-177" vertex="1" connectable="0">
          <mxGeometry x="0.334" y="3" relative="1" as="geometry">
            <mxPoint x="1" as="offset" />
          </mxGeometry>
        </mxCell>
        <mxCell id="rCQZ0M5XMtd213yGawNZ-180" value="" style="endArrow=none;endSize=12;dashed=1;html=1;rounded=0;endFill=0;fontSize=27;fontFamily=Helvetica;" parent="rCQZ0M5XMtd213yGawNZ-213" edge="1">
          <mxGeometry width="160" relative="1" as="geometry">
            <mxPoint x="546.9922572960096" y="274.8859413428357" as="sourcePoint" />
            <mxPoint x="546.9922572960096" y="225.54743905053192" as="targetPoint" />
          </mxGeometry>
        </mxCell>
        <mxCell id="rCQZ0M5XMtd213yGawNZ-182" value="" style="endArrow=none;endSize=12;dashed=1;html=1;rounded=0;endFill=0;fontSize=27;fontFamily=Helvetica;" parent="rCQZ0M5XMtd213yGawNZ-213" edge="1">
          <mxGeometry width="160" relative="1" as="geometry">
            <mxPoint x="2490" y="274.866788197536" as="sourcePoint" />
            <mxPoint x="2490" y="247.01093542538027" as="targetPoint" />
          </mxGeometry>
        </mxCell>
        <mxCell id="rCQZ0M5XMtd213yGawNZ-185" value="&lt;h2 style=&quot;font-size: 27px;&quot;&gt;Data Access Layer&lt;/h2&gt;" style="shape=umlFrame;whiteSpace=wrap;html=1;pointerEvents=0;width=170;height=60;fontFamily=Helvetica;labelBackgroundColor=none;fillColor=#ffcd28;strokeColor=#d79b00;fontSize=27;gradientColor=#ffa500;" parent="rCQZ0M5XMtd213yGawNZ-213" vertex="1">
          <mxGeometry x="-341.87" width="3211.87" height="823.3697847512677" as="geometry" />
        </mxCell>
        <mxCell id="rCQZ0M5XMtd213yGawNZ-479" value="&lt;font style=&quot;font-size: 27px;&quot;&gt;1&lt;/font&gt;" style="text;html=1;align=center;verticalAlign=middle;resizable=0;points=[];autosize=1;strokeColor=none;fillColor=none;fontSize=27;fontFamily=Helvetica;" parent="rCQZ0M5XMtd213yGawNZ-213" vertex="1">
          <mxGeometry x="2635" y="221.7281132305724" width="40" height="50" as="geometry" />
        </mxCell>
        <mxCell id="rCQZ0M5XMtd213yGawNZ-493" value="&lt;font style=&quot;font-size: 27px;&quot;&gt;1&lt;/font&gt;" style="text;html=1;align=center;verticalAlign=middle;resizable=0;points=[];autosize=1;strokeColor=none;fillColor=none;fontSize=27;fontFamily=Helvetica;" parent="rCQZ0M5XMtd213yGawNZ-213" vertex="1">
          <mxGeometry x="215" y="230.4540430146211" width="40" height="50" as="geometry" />
        </mxCell>
        <mxCell id="rCQZ0M5XMtd213yGawNZ-496" value="&lt;font style=&quot;font-size: 27px;&quot;&gt;1&lt;/font&gt;" style="text;html=1;align=center;verticalAlign=middle;resizable=0;points=[];autosize=1;strokeColor=none;fillColor=none;fontSize=27;fontFamily=Helvetica;" parent="rCQZ0M5XMtd213yGawNZ-213" vertex="1">
          <mxGeometry x="1260" y="284.93024639822687" width="40" height="50" as="geometry" />
        </mxCell>
        <mxCell id="rCQZ0M5XMtd213yGawNZ-214" value="" style="group;fontSize=27;fontFamily=Helvetica;" parent="1" vertex="1" connectable="0">
          <mxGeometry x="-686" y="3230" width="3126" height="450" as="geometry" />
        </mxCell>
        <mxCell id="rCQZ0M5XMtd213yGawNZ-186" value="&lt;font style=&quot;font-size: 27px;&quot;&gt;Pruduct&lt;/font&gt;" style="strokeWidth=2;html=1;shape=mxgraph.flowchart.database;whiteSpace=wrap;fontSize=27;fontFamily=Helvetica;" parent="rCQZ0M5XMtd213yGawNZ-214" vertex="1">
          <mxGeometry x="280.7784431137724" y="85.7142857142857" width="411.8083832335329" height="235.71428571428567" as="geometry" />
        </mxCell>
        <mxCell id="rCQZ0M5XMtd213yGawNZ-187" value="&lt;font style=&quot;font-size: 27px;&quot;&gt;Item&lt;/font&gt;" style="strokeWidth=2;html=1;shape=mxgraph.flowchart.database;whiteSpace=wrap;fontSize=27;fontFamily=Helvetica;" parent="rCQZ0M5XMtd213yGawNZ-214" vertex="1">
          <mxGeometry x="2227.508982035928" y="85.7142857142857" width="411.8083832335329" height="235.71428571428567" as="geometry" />
        </mxCell>
        <mxCell id="rCQZ0M5XMtd213yGawNZ-188" value="&lt;font style=&quot;font-size: 27px;&quot;&gt;SaleItem&lt;/font&gt;" style="strokeWidth=2;html=1;shape=mxgraph.flowchart.database;whiteSpace=wrap;fontSize=27;fontFamily=Helvetica;" parent="rCQZ0M5XMtd213yGawNZ-214" vertex="1">
          <mxGeometry x="1295.9965269461077" y="85.7142857142857" width="411.8083832335329" height="235.71428571428567" as="geometry" />
        </mxCell>
        <mxCell id="rCQZ0M5XMtd213yGawNZ-190" value="&lt;h2 style=&quot;font-size: 27px;&quot;&gt;Data Base&lt;/h2&gt;" style="shape=umlFrame;whiteSpace=wrap;html=1;pointerEvents=0;width=170;height=60;fontFamily=Helvetica;labelBackgroundColor=none;fillColor=#b0e3e6;strokeColor=#0e8088;fontSize=27;" parent="rCQZ0M5XMtd213yGawNZ-214" vertex="1">
          <mxGeometry width="3126" height="450" as="geometry" />
        </mxCell>
        <mxCell id="rCQZ0M5XMtd213yGawNZ-193" value="Use" style="endArrow=open;endSize=12;dashed=1;html=1;rounded=0;fontSize=27;entryX=0.398;entryY=0.327;entryDx=0;entryDy=0;entryPerimeter=0;exitX=0.44;exitY=1.009;exitDx=0;exitDy=0;exitPerimeter=0;fontFamily=Helvetica;" parent="1" source="rCQZ0M5XMtd213yGawNZ-168" target="rCQZ0M5XMtd213yGawNZ-186" edge="1">
          <mxGeometry width="160" relative="1" as="geometry">
            <mxPoint x="-110" y="3000" as="sourcePoint" />
            <mxPoint x="170" y="2600" as="targetPoint" />
          </mxGeometry>
        </mxCell>
        <mxCell id="rCQZ0M5XMtd213yGawNZ-194" value="Use" style="endArrow=open;endSize=12;dashed=1;html=1;rounded=0;entryX=0.329;entryY=0.321;entryDx=0;entryDy=0;entryPerimeter=0;fontSize=27;exitX=0.515;exitY=1.049;exitDx=0;exitDy=0;exitPerimeter=0;fontFamily=Helvetica;" parent="1" source="rCQZ0M5XMtd213yGawNZ-175" target="rCQZ0M5XMtd213yGawNZ-188" edge="1">
          <mxGeometry width="160" relative="1" as="geometry">
            <mxPoint x="405.59000000000003" y="3486.19" as="sourcePoint" />
            <mxPoint x="310.0031736526943" y="2799.999523809523" as="targetPoint" />
          </mxGeometry>
        </mxCell>
        <mxCell id="rCQZ0M5XMtd213yGawNZ-216" value="" style="group;fontSize=27;fontFamily=Helvetica;" parent="1" vertex="1" connectable="0">
          <mxGeometry x="-720" y="-1140" width="3130" height="380" as="geometry" />
        </mxCell>
        <mxCell id="rCQZ0M5XMtd213yGawNZ-9" value="&lt;h2 style=&quot;font-size: 27px;&quot;&gt;Presentation&lt;/h2&gt;" style="shape=umlFrame;whiteSpace=wrap;html=1;pointerEvents=0;width=170;height=60;fontFamily=Helvetica;labelBackgroundColor=none;fillColor=#dae8fc;strokeColor=#6c8ebf;fontSize=27;gradientColor=#7ea6e0;" parent="rCQZ0M5XMtd213yGawNZ-216" vertex="1">
          <mxGeometry width="3130" height="379.99999999999994" as="geometry" />
        </mxCell>
        <mxCell id="rCQZ0M5XMtd213yGawNZ-37" value="Use" style="endArrow=open;endSize=12;dashed=1;html=1;rounded=0;entryX=0;entryY=-0.192;entryDx=0;entryDy=0;fontSize=27;fontFamily=Helvetica;entryPerimeter=0;exitX=1;exitY=0.5;exitDx=0;exitDy=0;labelBackgroundColor=none;fontColor=default;" parent="rCQZ0M5XMtd213yGawNZ-216" source="rCQZ0M5XMtd213yGawNZ-61" target="rCQZ0M5XMtd213yGawNZ-66" edge="1">
          <mxGeometry width="160" relative="1" as="geometry">
            <mxPoint x="1515.578947368421" y="102.38888888888887" as="sourcePoint" />
            <mxPoint x="1713.2631578947367" y="55.944444444444436" as="targetPoint" />
          </mxGeometry>
        </mxCell>
        <mxCell id="rCQZ0M5XMtd213yGawNZ-39" value="Use" style="endArrow=open;endSize=12;dashed=1;html=1;rounded=0;entryX=0;entryY=0.5;entryDx=0;entryDy=0;fontSize=27;fontFamily=Helvetica;exitX=0.47;exitY=1.008;exitDx=0;exitDy=0;exitPerimeter=0;labelBackgroundColor=none;fontColor=default;" parent="rCQZ0M5XMtd213yGawNZ-216" source="rCQZ0M5XMtd213yGawNZ-61" edge="1">
          <mxGeometry width="160" relative="1" as="geometry">
            <mxPoint x="1235.5263157894735" y="81.80555555555554" as="sourcePoint" />
            <mxPoint x="2141.578947368421" y="198.05555555555543" as="targetPoint" />
          </mxGeometry>
        </mxCell>
        <mxCell id="rCQZ0M5XMtd213yGawNZ-42" value="Use" style="endArrow=open;endSize=12;dashed=1;html=1;rounded=0;fontSize=27;fontFamily=Helvetica;exitX=0.51;exitY=1.177;exitDx=0;exitDy=0;exitPerimeter=0;entryX=0;entryY=0.25;entryDx=0;entryDy=0;labelBackgroundColor=none;fontColor=default;" parent="rCQZ0M5XMtd213yGawNZ-216" source="rCQZ0M5XMtd213yGawNZ-61" target="rCQZ0M5XMtd213yGawNZ-76" edge="1">
          <mxGeometry width="160" relative="1" as="geometry">
            <mxPoint x="1301.421052631579" y="126.66666666666664" as="sourcePoint" />
            <mxPoint x="1779.157894736842" y="265.13592964824113" as="targetPoint" />
          </mxGeometry>
        </mxCell>
        <mxCell id="rCQZ0M5XMtd213yGawNZ-58" value="&lt;span style=&quot;font-size: 27px; font-weight: 400;&quot;&gt;MainMenu&lt;/span&gt;" style="swimlane;fontStyle=1;align=center;verticalAlign=top;childLayout=stackLayout;horizontal=1;startSize=38;horizontalStack=0;resizeParent=1;resizeParentMax=0;resizeLast=0;collapsible=1;marginBottom=0;whiteSpace=wrap;html=1;hachureGap=4;fontFamily=Helvetica;labelBackgroundColor=none;fontSize=27;" parent="rCQZ0M5XMtd213yGawNZ-216" vertex="1">
          <mxGeometry x="1252" y="31.66666666666666" width="263.58" height="102" as="geometry" />
        </mxCell>
        <mxCell id="rCQZ0M5XMtd213yGawNZ-61" value="&lt;span style=&quot;font-size: 27px;&quot;&gt;+ runMenue(): void&lt;/span&gt;" style="text;strokeColor=none;fillColor=none;align=left;verticalAlign=top;spacingLeft=4;spacingRight=4;overflow=hidden;rotatable=0;points=[[0,0.5],[1,0.5]];portConstraint=eastwest;whiteSpace=wrap;html=1;fontFamily=Helvetica;labelBackgroundColor=none;fontSize=27;" parent="rCQZ0M5XMtd213yGawNZ-58" vertex="1">
          <mxGeometry y="38" width="263.58" height="64" as="geometry" />
        </mxCell>
        <mxCell id="rCQZ0M5XMtd213yGawNZ-63" value="&lt;span style=&quot;font-size: 27px; font-weight: 400;&quot;&gt;Management&lt;/span&gt;" style="swimlane;fontStyle=1;align=center;verticalAlign=top;childLayout=stackLayout;horizontal=1;startSize=40;horizontalStack=0;resizeParent=1;resizeParentMax=0;resizeLast=0;collapsible=1;marginBottom=0;whiteSpace=wrap;html=1;hachureGap=4;fontFamily=Helvetica;labelBackgroundColor=none;fontSize=27;" parent="rCQZ0M5XMtd213yGawNZ-216" vertex="1">
          <mxGeometry x="2490.004736842105" y="80.0011111111111" width="296.53" height="94" as="geometry" />
        </mxCell>
        <mxCell id="rCQZ0M5XMtd213yGawNZ-66" value="&lt;span style=&quot;font-size: 27px;&quot;&gt;+ runMenue(): void&lt;/span&gt;" style="text;strokeColor=none;fillColor=none;align=left;verticalAlign=top;spacingLeft=4;spacingRight=4;overflow=hidden;rotatable=0;points=[[0,0.5],[1,0.5]];portConstraint=eastwest;whiteSpace=wrap;html=1;fontFamily=Helvetica;labelBackgroundColor=none;fontSize=27;" parent="rCQZ0M5XMtd213yGawNZ-63" vertex="1">
          <mxGeometry y="40" width="296.53" height="54" as="geometry" />
        </mxCell>
        <mxCell id="rCQZ0M5XMtd213yGawNZ-68" value="&lt;span style=&quot;font-size: 27px; font-weight: 400;&quot;&gt;Report&lt;/span&gt;" style="swimlane;fontStyle=1;align=center;verticalAlign=top;childLayout=stackLayout;horizontal=1;startSize=42;horizontalStack=0;resizeParent=1;resizeParentMax=0;resizeLast=0;collapsible=1;marginBottom=0;whiteSpace=wrap;html=1;hachureGap=4;fontFamily=Helvetica;labelBackgroundColor=none;fontSize=27;" parent="rCQZ0M5XMtd213yGawNZ-216" vertex="1">
          <mxGeometry x="2141.578947368421" y="158.33333333333331" width="296.53" height="96" as="geometry" />
        </mxCell>
        <mxCell id="rCQZ0M5XMtd213yGawNZ-71" value="&lt;span style=&quot;font-size: 27px;&quot;&gt;+ runMenue(): void&lt;/span&gt;" style="text;strokeColor=none;fillColor=none;align=left;verticalAlign=top;spacingLeft=4;spacingRight=4;overflow=hidden;rotatable=0;points=[[0,0.5],[1,0.5]];portConstraint=eastwest;whiteSpace=wrap;html=1;fontFamily=Helvetica;labelBackgroundColor=none;fontSize=27;" parent="rCQZ0M5XMtd213yGawNZ-68" vertex="1">
          <mxGeometry y="42" width="296.53" height="54" as="geometry" />
        </mxCell>
        <mxCell id="rCQZ0M5XMtd213yGawNZ-72" value="&lt;span style=&quot;font-size: 27px; font-weight: 400;&quot;&gt;ReadFile&lt;/span&gt;" style="swimlane;fontStyle=1;align=center;verticalAlign=top;childLayout=stackLayout;horizontal=1;startSize=39;horizontalStack=0;resizeParent=1;resizeParentMax=0;resizeLast=0;collapsible=1;marginBottom=0;whiteSpace=wrap;html=1;hachureGap=4;fontFamily=Helvetica;labelBackgroundColor=none;fontSize=27;" parent="rCQZ0M5XMtd213yGawNZ-216" vertex="1">
          <mxGeometry x="879.9994736842104" y="200.00111111111107" width="296.53" height="91.77777777777777" as="geometry" />
        </mxCell>
        <mxCell id="rCQZ0M5XMtd213yGawNZ-75" value="&lt;span style=&quot;font-size: 27px;&quot;&gt;+ runMenue(): void&lt;/span&gt;" style="text;strokeColor=none;fillColor=none;align=left;verticalAlign=top;spacingLeft=4;spacingRight=4;overflow=hidden;rotatable=0;points=[[0,0.5],[1,0.5]];portConstraint=eastwest;whiteSpace=wrap;html=1;fontFamily=Helvetica;labelBackgroundColor=none;fontSize=27;" parent="rCQZ0M5XMtd213yGawNZ-72" vertex="1">
          <mxGeometry y="39" width="296.53" height="52.77777777777777" as="geometry" />
        </mxCell>
        <mxCell id="rCQZ0M5XMtd213yGawNZ-76" value="&lt;span style=&quot;font-size: 27px; font-weight: 400;&quot;&gt;ProduceReports&lt;/span&gt;" style="swimlane;fontStyle=1;align=center;verticalAlign=top;childLayout=stackLayout;horizontal=1;startSize=41;horizontalStack=0;resizeParent=1;resizeParentMax=0;resizeLast=0;collapsible=1;marginBottom=0;whiteSpace=wrap;html=1;hachureGap=4;fontFamily=Helvetica;labelBackgroundColor=none;fontSize=27;" parent="rCQZ0M5XMtd213yGawNZ-216" vertex="1">
          <mxGeometry x="1779.157894736842" y="249.1111111111111" width="296.53" height="85" as="geometry" />
        </mxCell>
        <mxCell id="rCQZ0M5XMtd213yGawNZ-79" value="&lt;span style=&quot;font-size: 27px;&quot;&gt;+ runMenue(): void&lt;/span&gt;" style="text;strokeColor=none;fillColor=none;align=left;verticalAlign=top;spacingLeft=4;spacingRight=4;overflow=hidden;rotatable=0;points=[[0,0.5],[1,0.5]];portConstraint=eastwest;whiteSpace=wrap;html=1;fontFamily=Helvetica;labelBackgroundColor=none;fontSize=27;" parent="rCQZ0M5XMtd213yGawNZ-76" vertex="1">
          <mxGeometry y="41" width="296.53" height="44" as="geometry" />
        </mxCell>
        <mxCell id="rCQZ0M5XMtd213yGawNZ-80" value="Use" style="endArrow=open;endSize=12;dashed=1;html=1;rounded=0;fontSize=27;fontFamily=Helvetica;exitX=0.199;exitY=1.057;exitDx=0;exitDy=0;exitPerimeter=0;labelBackgroundColor=none;fontColor=default;" parent="rCQZ0M5XMtd213yGawNZ-216" source="rCQZ0M5XMtd213yGawNZ-61" target="rCQZ0M5XMtd213yGawNZ-72" edge="1">
          <mxGeometry width="160" relative="1" as="geometry">
            <mxPoint x="1367.3157894736842" y="122.44444444444443" as="sourcePoint" />
            <mxPoint x="1759.3894736842105" y="267.05555555555554" as="targetPoint" />
          </mxGeometry>
        </mxCell>
        <mxCell id="rCQZ0M5XMtd213yGawNZ-435" value="&lt;font style=&quot;font-size: 27px;&quot;&gt;1&lt;/font&gt;" style="text;html=1;align=center;verticalAlign=middle;resizable=0;points=[];autosize=1;strokeColor=none;fillColor=none;fontSize=27;fontFamily=Helvetica;" parent="rCQZ0M5XMtd213yGawNZ-216" vertex="1">
          <mxGeometry x="1070" y="300" width="40" height="50" as="geometry" />
        </mxCell>
        <mxCell id="rCQZ0M5XMtd213yGawNZ-441" value="&lt;font style=&quot;font-size: 27px;&quot;&gt;1&lt;/font&gt;" style="text;html=1;align=center;verticalAlign=middle;resizable=0;points=[];autosize=1;strokeColor=none;fillColor=none;fontSize=27;fontFamily=Helvetica;" parent="rCQZ0M5XMtd213yGawNZ-216" vertex="1">
          <mxGeometry x="1340" y="140" width="40" height="50" as="geometry" />
        </mxCell>
        <mxCell id="rCQZ0M5XMtd213yGawNZ-442" value="&lt;font style=&quot;font-size: 27px;&quot;&gt;1&lt;/font&gt;" style="text;html=1;align=center;verticalAlign=middle;resizable=0;points=[];autosize=1;strokeColor=none;fillColor=none;fontSize=27;fontFamily=Helvetica;" parent="rCQZ0M5XMtd213yGawNZ-216" vertex="1">
          <mxGeometry x="1835" y="330" width="40" height="50" as="geometry" />
        </mxCell>
        <mxCell id="rCQZ0M5XMtd213yGawNZ-443" value="&lt;font style=&quot;font-size: 27px;&quot;&gt;1&lt;/font&gt;" style="text;html=1;align=center;verticalAlign=middle;resizable=0;points=[];autosize=1;strokeColor=none;fillColor=none;fontSize=27;fontFamily=Helvetica;" parent="rCQZ0M5XMtd213yGawNZ-216" vertex="1">
          <mxGeometry x="2240" y="239.89" width="40" height="50" as="geometry" />
        </mxCell>
        <mxCell id="rCQZ0M5XMtd213yGawNZ-444" value="&lt;font style=&quot;font-size: 27px;&quot;&gt;1&lt;/font&gt;" style="text;html=1;align=center;verticalAlign=middle;resizable=0;points=[];autosize=1;strokeColor=none;fillColor=none;fontSize=27;fontFamily=Helvetica;" parent="rCQZ0M5XMtd213yGawNZ-216" vertex="1">
          <mxGeometry x="2590" y="173.33000000000004" width="40" height="50" as="geometry" />
        </mxCell>
        <mxCell id="rCQZ0M5XMtd213yGawNZ-417" style="edgeStyle=none;rounded=0;orthogonalLoop=1;jettySize=auto;html=1;entryX=0.5;entryY=0;entryDx=0;entryDy=0;fontSize=27;fontFamily=Helvetica;" parent="1" source="rCQZ0M5XMtd213yGawNZ-58" target="rCQZ0M5XMtd213yGawNZ-303" edge="1">
          <mxGeometry relative="1" as="geometry" />
        </mxCell>
        <mxCell id="rCQZ0M5XMtd213yGawNZ-424" value="&lt;span style=&quot;font-size: 27px;&quot;&gt;Served by&lt;/span&gt;" style="edgeLabel;html=1;align=center;verticalAlign=middle;resizable=0;points=[];fontSize=27;fontFamily=Helvetica;" parent="rCQZ0M5XMtd213yGawNZ-417" vertex="1" connectable="0">
          <mxGeometry x="0.013" y="5" relative="1" as="geometry">
            <mxPoint as="offset" />
          </mxGeometry>
        </mxCell>
        <mxCell id="rCQZ0M5XMtd213yGawNZ-418" style="edgeStyle=none;rounded=0;orthogonalLoop=1;jettySize=auto;html=1;entryX=0.394;entryY=0.005;entryDx=0;entryDy=0;entryPerimeter=0;fontSize=27;fontFamily=Helvetica;" parent="1" source="rCQZ0M5XMtd213yGawNZ-72" target="rCQZ0M5XMtd213yGawNZ-303" edge="1">
          <mxGeometry relative="1" as="geometry" />
        </mxCell>
        <mxCell id="rCQZ0M5XMtd213yGawNZ-423" value="&lt;font style=&quot;font-size: 27px;&quot;&gt;Served by&lt;/font&gt;" style="edgeLabel;html=1;align=center;verticalAlign=middle;resizable=0;points=[];fontSize=27;fontFamily=Helvetica;" parent="rCQZ0M5XMtd213yGawNZ-418" vertex="1" connectable="0">
          <mxGeometry x="0.0083" y="-2" relative="1" as="geometry">
            <mxPoint as="offset" />
          </mxGeometry>
        </mxCell>
        <mxCell id="rCQZ0M5XMtd213yGawNZ-419" style="edgeStyle=none;rounded=0;orthogonalLoop=1;jettySize=auto;html=1;fontSize=27;fontFamily=Helvetica;" parent="1" source="rCQZ0M5XMtd213yGawNZ-76" target="rCQZ0M5XMtd213yGawNZ-303" edge="1">
          <mxGeometry relative="1" as="geometry" />
        </mxCell>
        <mxCell id="rCQZ0M5XMtd213yGawNZ-425" value="&lt;span style=&quot;font-size: 27px;&quot;&gt;Served by&lt;/span&gt;" style="edgeLabel;html=1;align=center;verticalAlign=middle;resizable=0;points=[];fontSize=27;fontFamily=Helvetica;" parent="rCQZ0M5XMtd213yGawNZ-419" vertex="1" connectable="0">
          <mxGeometry x="-0.2014" y="1" relative="1" as="geometry">
            <mxPoint y="-1" as="offset" />
          </mxGeometry>
        </mxCell>
        <mxCell id="rCQZ0M5XMtd213yGawNZ-420" style="edgeStyle=none;rounded=0;orthogonalLoop=1;jettySize=auto;html=1;entryX=0.789;entryY=-0.004;entryDx=0;entryDy=0;entryPerimeter=0;fontSize=27;fontFamily=Helvetica;" parent="1" source="rCQZ0M5XMtd213yGawNZ-68" target="rCQZ0M5XMtd213yGawNZ-303" edge="1">
          <mxGeometry relative="1" as="geometry" />
        </mxCell>
        <mxCell id="rCQZ0M5XMtd213yGawNZ-426" value="&lt;span style=&quot;font-size: 27px;&quot;&gt;Served by&lt;/span&gt;" style="edgeLabel;html=1;align=center;verticalAlign=middle;resizable=0;points=[];fontSize=27;fontFamily=Helvetica;" parent="rCQZ0M5XMtd213yGawNZ-420" vertex="1" connectable="0">
          <mxGeometry x="0.159" y="2" relative="1" as="geometry">
            <mxPoint as="offset" />
          </mxGeometry>
        </mxCell>
        <mxCell id="rCQZ0M5XMtd213yGawNZ-422" style="edgeStyle=none;rounded=0;orthogonalLoop=1;jettySize=auto;html=1;entryX=1.003;entryY=0.053;entryDx=0;entryDy=0;entryPerimeter=0;fontSize=27;fontFamily=Helvetica;" parent="1" source="rCQZ0M5XMtd213yGawNZ-63" target="rCQZ0M5XMtd213yGawNZ-306" edge="1">
          <mxGeometry relative="1" as="geometry" />
        </mxCell>
        <mxCell id="rCQZ0M5XMtd213yGawNZ-427" value="&lt;span style=&quot;font-size: 27px;&quot;&gt;Served by&lt;/span&gt;" style="edgeLabel;html=1;align=center;verticalAlign=middle;resizable=0;points=[];fontSize=27;fontFamily=Helvetica;" parent="rCQZ0M5XMtd213yGawNZ-422" vertex="1" connectable="0">
          <mxGeometry x="0.1318" y="-8" relative="1" as="geometry">
            <mxPoint y="1" as="offset" />
          </mxGeometry>
        </mxCell>
        <mxCell id="rCQZ0M5XMtd213yGawNZ-195" value="Use" style="endArrow=open;endSize=12;dashed=1;html=1;rounded=0;fontSize=27;entryX=0.591;entryY=0.327;entryDx=0;entryDy=0;entryPerimeter=0;exitX=0.292;exitY=1.002;exitDx=0;exitDy=0;exitPerimeter=0;fontFamily=Helvetica;" parent="1" source="rCQZ0M5XMtd213yGawNZ-172" target="rCQZ0M5XMtd213yGawNZ-187" edge="1">
          <mxGeometry width="160" relative="1" as="geometry">
            <mxPoint x="1980" y="3090" as="sourcePoint" />
            <mxPoint x="1780.0025930747202" y="3485.7124465194065" as="targetPoint" />
          </mxGeometry>
        </mxCell>
        <mxCell id="rCQZ0M5XMtd213yGawNZ-476" style="edgeStyle=none;rounded=0;orthogonalLoop=1;jettySize=auto;html=1;exitX=1.006;exitY=0.531;exitDx=0;exitDy=0;exitPerimeter=0;entryX=0.636;entryY=-0.029;entryDx=0;entryDy=0;entryPerimeter=0;fontSize=27;fontFamily=Helvetica;" parent="1" source="rCQZ0M5XMtd213yGawNZ-118" target="rCQZ0M5XMtd213yGawNZ-169" edge="1">
          <mxGeometry relative="1" as="geometry">
            <Array as="points">
              <mxPoint x="2180" y="884" />
            </Array>
          </mxGeometry>
        </mxCell>
        <mxCell id="rCQZ0M5XMtd213yGawNZ-477" value="&lt;span style=&quot;font-size: 27px;&quot;&gt;manage&lt;/span&gt;" style="edgeLabel;html=1;align=center;verticalAlign=middle;resizable=0;points=[];fontSize=27;fontFamily=Helvetica;" parent="rCQZ0M5XMtd213yGawNZ-476" vertex="1" connectable="0">
          <mxGeometry x="0.2628" y="-8" relative="1" as="geometry">
            <mxPoint as="offset" />
          </mxGeometry>
        </mxCell>
        <mxCell id="rCQZ0M5XMtd213yGawNZ-487" style="edgeStyle=none;rounded=0;orthogonalLoop=1;jettySize=auto;html=1;entryX=0.367;entryY=-0.007;entryDx=0;entryDy=0;entryPerimeter=0;exitX=0.224;exitY=1.002;exitDx=0;exitDy=0;exitPerimeter=0;fontSize=27;fontFamily=Helvetica;" parent="1" source="rCQZ0M5XMtd213yGawNZ-110" target="rCQZ0M5XMtd213yGawNZ-165" edge="1">
          <mxGeometry relative="1" as="geometry">
            <Array as="points">
              <mxPoint x="270" y="1780" />
            </Array>
          </mxGeometry>
        </mxCell>
        <mxCell id="rCQZ0M5XMtd213yGawNZ-491" value="&lt;span style=&quot;font-size: 27px;&quot;&gt;manage&lt;/span&gt;" style="edgeLabel;html=1;align=center;verticalAlign=middle;resizable=0;points=[];fontSize=27;fontFamily=Helvetica;" parent="rCQZ0M5XMtd213yGawNZ-487" vertex="1" connectable="0">
          <mxGeometry x="0.2267" y="1" relative="1" as="geometry">
            <mxPoint as="offset" />
          </mxGeometry>
        </mxCell>
        <mxCell id="rCQZ0M5XMtd213yGawNZ-494" style="edgeStyle=none;rounded=0;orthogonalLoop=1;jettySize=auto;html=1;entryX=0.082;entryY=0.011;entryDx=0;entryDy=0;entryPerimeter=0;exitX=0.333;exitY=1.005;exitDx=0;exitDy=0;exitPerimeter=0;fontSize=27;fontFamily=Helvetica;" parent="1" source="rCQZ0M5XMtd213yGawNZ-110" target="rCQZ0M5XMtd213yGawNZ-173" edge="1">
          <mxGeometry relative="1" as="geometry">
            <Array as="points">
              <mxPoint x="340" y="2530" />
            </Array>
          </mxGeometry>
        </mxCell>
        <mxCell id="rCQZ0M5XMtd213yGawNZ-495" value="&lt;span style=&quot;font-size: 27px;&quot;&gt;manage&lt;/span&gt;" style="edgeLabel;html=1;align=center;verticalAlign=middle;resizable=0;points=[];fontSize=27;fontFamily=Helvetica;" parent="rCQZ0M5XMtd213yGawNZ-494" vertex="1" connectable="0">
          <mxGeometry x="0.0973" y="-4" relative="1" as="geometry">
            <mxPoint as="offset" />
          </mxGeometry>
        </mxCell>
        <mxCell id="rCQZ0M5XMtd213yGawNZ-500" value="" style="endArrow=none;startArrow=none;endFill=0;startFill=0;html=1;rounded=0;exitX=0.391;exitY=-0.003;exitDx=0;exitDy=0;exitPerimeter=0;dashed=1;" parent="1" source="rCQZ0M5XMtd213yGawNZ-173" edge="1">
          <mxGeometry width="160" relative="1" as="geometry">
            <mxPoint x="1030" y="2740" as="sourcePoint" />
            <mxPoint x="1090" y="2620" as="targetPoint" />
          </mxGeometry>
        </mxCell>
      </root>
    </mxGraphModel>
  </diagram>
</mxfile>
